<?xml version="1.0" encoding="UTF-8" standalone="no"?><svg xmlns="http://www.w3.org/2000/svg" xmlns:xlink="http://www.w3.org/1999/xlink" contentScriptType="application/ecmascript" contentStyleType="text/css" height="734px" preserveAspectRatio="none" style="width:1112px;height:734px;" version="1.1" viewBox="0 0 1112 734" width="1112px" zoomAndPan="magnify"><defs><filter height="300%" id="fg0q8fshkhpvt" width="300%" x="-1" y="-1"><feGaussianBlur result="blurOut" stdDeviation="2.0"/><feColorMatrix in="blurOut" result="blurOut2" type="matrix" values="0 0 0 0 0 0 0 0 0 0 0 0 0 0 0 0 0 0 .4 0"/><feOffset dx="4.0" dy="4.0" in="blurOut2" result="blurOut3"/><feBlend in="SourceGraphic" in2="blurOut3" mode="normal"/></filter></defs><g><!--MD5=[3bd8f26cbe9b36720c5638fadb7f6a74]
cluster Decorateur.Coffee--><polygon fill="#FFFFFF" filter="url(#fg0q8fshkhpvt)" points="786,6,939,6,946,28.2969,1095,28.2969,1095,347,786,347,786,6" style="stroke:#000000;stroke-width:1.5;"/><line style="stroke:#000000;stroke-width:1.5;" x1="786" x2="946" y1="28.2969" y2="28.2969"/><text fill="#000000" font-family="sans-serif" font-size="14" font-weight="bold" lengthAdjust="spacing" textLength="147" x="790" y="20.9951">Decorateur.Coffee</text><!--MD5=[21568f805cafeeb9f0d4444041afb287]
cluster Decorateur.Patate--><polygon fill="#FFFFFF" filter="url(#fg0q8fshkhpvt)" points="16,6,172,6,179,28.2969,281,28.2969,281,347,16,347,16,6" style="stroke:#000000;stroke-width:1.5;"/><line style="stroke:#000000;stroke-width:1.5;" x1="16" x2="179" y1="28.2969" y2="28.2969"/><text fill="#000000" font-family="sans-serif" font-size="14" font-weight="bold" lengthAdjust="spacing" textLength="150" x="20" y="20.9951">Decorateur.Patate</text><!--MD5=[2dad1840cd4dc0f22a2277f8c580eb75]
cluster Decorateur.Pizza--><polygon fill="#FFFFFF" filter="url(#fg0q8fshkhpvt)" points="305,6,449,6,456,28.2969,762,28.2969,762,347,305,347,305,6" style="stroke:#000000;stroke-width:1.5;"/><line style="stroke:#000000;stroke-width:1.5;" x1="305" x2="456" y1="28.2969" y2="28.2969"/><text fill="#000000" font-family="sans-serif" font-size="14" font-weight="bold" lengthAdjust="spacing" textLength="138" x="309" y="20.9951">Decorateur.Pizza</text><!--MD5=[8633360484c1895758c5923f9a2fb532]
cluster Decorateur.Repas--><polygon fill="#FFFFFF" filter="url(#fg0q8fshkhpvt)" points="382,371,532,371,539,393.2969,566,393.2969,566,604,382,604,382,371" style="stroke:#000000;stroke-width:1.5;"/><line style="stroke:#000000;stroke-width:1.5;" x1="382" x2="539" y1="393.2969" y2="393.2969"/><text fill="#000000" font-family="sans-serif" font-size="14" font-weight="bold" lengthAdjust="spacing" textLength="144" x="386" y="385.9951">Decorateur.Repas</text><!--MD5=[7db3c59d38ae5b37b484eb2df9368145]
cluster java.util--><polygon fill="#FFFFFF" filter="url(#fg0q8fshkhpvt)" points="333,628,406,628,413,650.2969,647,650.2969,647,727,333,727,333,628" style="stroke:#000000;stroke-width:1.5;"/><line style="stroke:#000000;stroke-width:1.5;" x1="333" x2="413" y1="650.2969" y2="650.2969"/><text fill="#000000" font-family="sans-serif" font-size="14" font-weight="bold" lengthAdjust="spacing" textLength="67" x="337" y="642.9951">java.util</text><!--MD5=[ed50e28a5a07b8d2c86c3b5a60da1aee]
class Decorateur.Coffee.CoffeeDecorator--><rect codeLine="1" fill="#FEFECE" filter="url(#fg0q8fshkhpvt)" height="48" id="Decorateur.Coffee.CoffeeDecorator" style="stroke:#A80036;stroke-width:1.5;" width="128" x="802" y="149"/><ellipse cx="817" cy="165" fill="#A9DCDF" rx="11" ry="11" style="stroke:#A80036;stroke-width:1.0;"/><path d="M819.0781,166.8125 L819.4688,167.7969 L819.0781,167.7969 C818.625,167.7969 818.5156,167.8125 818.3594,167.9219 C818.1094,168.0781 817.9531,168.3594 817.9531,168.6563 C817.9531,168.9219 818.0938,169.1719 818.3125,169.3281 C818.4531,169.4531 818.6563,169.5 819.0781,169.5 L821.4375,169.5 C821.7969,169.5 822.0156,169.4688 822.1563,169.375 C822.4063,169.2344 822.5625,168.9375 822.5625,168.6563 C822.5625,168.375 822.4219,168.125 822.2031,167.9688 C822.0313,167.8281 821.875,167.7969 821.4063,167.7969 L818.0156,159.5938 L814.3438,159.5938 C813.8906,159.5938 813.7656,159.6094 813.6094,159.7031 C813.3594,159.875 813.2031,160.1563 813.2031,160.4375 C813.2031,160.7188 813.3438,160.9688 813.5625,161.1406 C813.7344,161.25 813.9063,161.2813 814.3438,161.2813 L815.4219,161.2813 L812.7813,167.7969 C812.3594,167.7969 812.2031,167.8125 812.0469,167.9219 C811.7969,168.0781 811.6406,168.3594 811.6406,168.6563 C811.6406,169.2188 812.0156,169.5 812.7656,169.5 L815.0313,169.5 C815.3906,169.5 815.6094,169.4688 815.7344,169.375 C816,169.2344 816.1406,168.9375 816.1406,168.6563 C816.1406,168.375 816.0156,168.125 815.7969,167.9531 C815.625,167.8281 815.4844,167.7969 815.0313,167.7969 L814.6406,167.7969 L815.0313,166.8125 L819.0781,166.8125 Z M818.375,165.1094 L815.7031,165.1094 L817.0469,161.8438 L818.375,165.1094 Z " fill="#000000"/><text fill="#000000" font-family="sans-serif" font-size="12" font-style="italic" lengthAdjust="spacing" textLength="96" x="831" y="169.1543">CoffeeDecorator</text><line style="stroke:#A80036;stroke-width:1.5;" x1="803" x2="929" y1="181" y2="181"/><line style="stroke:#A80036;stroke-width:1.5;" x1="803" x2="929" y1="189" y2="189"/><!--MD5=[184e192bee52c1f6c47451937f19840e]
class Decorateur.Coffee.SimpleCoffee--><rect codeLine="2" fill="#FEFECE" filter="url(#fg0q8fshkhpvt)" height="48" id="Decorateur.Coffee.SimpleCoffee" style="stroke:#A80036;stroke-width:1.5;" width="113" x="965.5" y="149"/><ellipse cx="980.5" cy="165" fill="#ADD1B2" rx="11" ry="11" style="stroke:#A80036;stroke-width:1.0;"/><path d="M982.8438,160.6719 C981.9063,160.2344 981.3125,160.0938 980.4375,160.0938 C977.8125,160.0938 975.8125,162.1719 975.8125,164.8906 L975.8125,166.0156 C975.8125,168.5938 977.9219,170.4844 980.8125,170.4844 C982.0313,170.4844 983.1875,170.1875 983.9375,169.6406 C984.5156,169.2344 984.8438,168.7813 984.8438,168.3906 C984.8438,167.9375 984.4531,167.5469 983.9844,167.5469 C983.7656,167.5469 983.5625,167.625 983.375,167.8125 C982.9219,168.2969 982.9219,168.2969 982.7344,168.3906 C982.3125,168.6563 981.625,168.7813 980.8594,168.7813 C978.8125,168.7813 977.5156,167.6875 977.5156,165.9844 L977.5156,164.8906 C977.5156,163.1094 978.7656,161.7969 980.5,161.7969 C981.0781,161.7969 981.6875,161.9531 982.1563,162.2031 C982.6406,162.4844 982.8125,162.7031 982.9063,163.1094 C982.9688,163.5156 983,163.6406 983.1406,163.7656 C983.2813,163.9063 983.5156,164.0156 983.7344,164.0156 C984,164.0156 984.2656,163.875 984.4375,163.6563 C984.5469,163.5 984.5781,163.3125 984.5781,162.8906 L984.5781,161.4688 C984.5781,161.0313 984.5625,160.9063 984.4688,160.75 C984.3125,160.4844 984.0313,160.3438 983.7344,160.3438 C983.4375,160.3438 983.2344,160.4375 983.0156,160.75 L982.8438,160.6719 Z " fill="#000000"/><text fill="#000000" font-family="sans-serif" font-size="12" lengthAdjust="spacing" textLength="81" x="994.5" y="169.1543">SimpleCoffee</text><line style="stroke:#A80036;stroke-width:1.5;" x1="966.5" x2="1077.5" y1="181" y2="181"/><line style="stroke:#A80036;stroke-width:1.5;" x1="966.5" x2="1077.5" y1="189" y2="189"/><!--MD5=[b40d133bb663cdc8db53fb6cc851cba6]
class Decorateur.Coffee.WithMilk--><rect codeLine="3" fill="#FEFECE" filter="url(#fg0q8fshkhpvt)" height="48" id="Decorateur.Coffee.WithMilk" style="stroke:#A80036;stroke-width:1.5;" width="81" x="954.5" y="41"/><ellipse cx="969.5" cy="57" fill="#ADD1B2" rx="11" ry="11" style="stroke:#A80036;stroke-width:1.0;"/><path d="M971.8438,52.6719 C970.9063,52.2344 970.3125,52.0938 969.4375,52.0938 C966.8125,52.0938 964.8125,54.1719 964.8125,56.8906 L964.8125,58.0156 C964.8125,60.5938 966.9219,62.4844 969.8125,62.4844 C971.0313,62.4844 972.1875,62.1875 972.9375,61.6406 C973.5156,61.2344 973.8438,60.7813 973.8438,60.3906 C973.8438,59.9375 973.4531,59.5469 972.9844,59.5469 C972.7656,59.5469 972.5625,59.625 972.375,59.8125 C971.9219,60.2969 971.9219,60.2969 971.7344,60.3906 C971.3125,60.6563 970.625,60.7813 969.8594,60.7813 C967.8125,60.7813 966.5156,59.6875 966.5156,57.9844 L966.5156,56.8906 C966.5156,55.1094 967.7656,53.7969 969.5,53.7969 C970.0781,53.7969 970.6875,53.9531 971.1563,54.2031 C971.6406,54.4844 971.8125,54.7031 971.9063,55.1094 C971.9688,55.5156 972,55.6406 972.1406,55.7656 C972.2813,55.9063 972.5156,56.0156 972.7344,56.0156 C973,56.0156 973.2656,55.875 973.4375,55.6563 C973.5469,55.5 973.5781,55.3125 973.5781,54.8906 L973.5781,53.4688 C973.5781,53.0313 973.5625,52.9063 973.4688,52.75 C973.3125,52.4844 973.0313,52.3438 972.7344,52.3438 C972.4375,52.3438 972.2344,52.4375 972.0156,52.75 L971.8438,52.6719 Z " fill="#000000"/><text fill="#000000" font-family="sans-serif" font-size="12" lengthAdjust="spacing" textLength="49" x="983.5" y="61.1543">WithMilk</text><line style="stroke:#A80036;stroke-width:1.5;" x1="955.5" x2="1034.5" y1="73" y2="73"/><line style="stroke:#A80036;stroke-width:1.5;" x1="955.5" x2="1034.5" y1="81" y2="81"/><!--MD5=[c01e9610b33b5694159e567e85fdfdc0]
class Decorateur.Coffee.WithSprinkles--><rect codeLine="4" fill="#FEFECE" filter="url(#fg0q8fshkhpvt)" height="48" id="Decorateur.Coffee.WithSprinkles" style="stroke:#A80036;stroke-width:1.5;" width="114" x="805" y="41"/><ellipse cx="820" cy="57" fill="#ADD1B2" rx="11" ry="11" style="stroke:#A80036;stroke-width:1.0;"/><path d="M822.3438,52.6719 C821.4063,52.2344 820.8125,52.0938 819.9375,52.0938 C817.3125,52.0938 815.3125,54.1719 815.3125,56.8906 L815.3125,58.0156 C815.3125,60.5938 817.4219,62.4844 820.3125,62.4844 C821.5313,62.4844 822.6875,62.1875 823.4375,61.6406 C824.0156,61.2344 824.3438,60.7813 824.3438,60.3906 C824.3438,59.9375 823.9531,59.5469 823.4844,59.5469 C823.2656,59.5469 823.0625,59.625 822.875,59.8125 C822.4219,60.2969 822.4219,60.2969 822.2344,60.3906 C821.8125,60.6563 821.125,60.7813 820.3594,60.7813 C818.3125,60.7813 817.0156,59.6875 817.0156,57.9844 L817.0156,56.8906 C817.0156,55.1094 818.2656,53.7969 820,53.7969 C820.5781,53.7969 821.1875,53.9531 821.6563,54.2031 C822.1406,54.4844 822.3125,54.7031 822.4063,55.1094 C822.4688,55.5156 822.5,55.6406 822.6406,55.7656 C822.7813,55.9063 823.0156,56.0156 823.2344,56.0156 C823.5,56.0156 823.7656,55.875 823.9375,55.6563 C824.0469,55.5 824.0781,55.3125 824.0781,54.8906 L824.0781,53.4688 C824.0781,53.0313 824.0625,52.9063 823.9688,52.75 C823.8125,52.4844 823.5313,52.3438 823.2344,52.3438 C822.9375,52.3438 822.7344,52.4375 822.5156,52.75 L822.3438,52.6719 Z " fill="#000000"/><text fill="#000000" font-family="sans-serif" font-size="12" lengthAdjust="spacing" textLength="82" x="834" y="61.1543">WithSprinkles</text><line style="stroke:#A80036;stroke-width:1.5;" x1="806" x2="918" y1="73" y2="73"/><line style="stroke:#A80036;stroke-width:1.5;" x1="806" x2="918" y1="81" y2="81"/><!--MD5=[542fc820ee6a05c2db9e0116160673ff]
class Decorateur.Coffee.ICoffee--><rect codeLine="19" fill="#FEFECE" filter="url(#fg0q8fshkhpvt)" height="73.6094" id="Decorateur.Coffee.ICoffee" style="stroke:#A80036;stroke-width:1.5;" width="151" x="802.5" y="257"/><ellipse cx="853.25" cy="273" fill="#B4A7E5" rx="11" ry="11" style="stroke:#A80036;stroke-width:1.0;"/><path d="M854.2031,269.7813 L855.9219,269.7813 C856.3125,269.7813 856.5,269.75 856.625,269.6719 C856.8906,269.5156 857.0313,269.2344 857.0313,268.9375 C857.0313,268.6719 856.9219,268.4063 856.6875,268.2344 C856.5156,268.125 856.375,268.0938 855.9219,268.0938 L850.7813,268.0938 C850.3438,268.0938 850.2188,268.1094 850.0625,268.2031 C849.8125,268.3594 849.6563,268.6563 849.6563,268.9375 C849.6563,269.2188 849.7969,269.4688 850.0156,269.6406 C850.1719,269.75 850.3594,269.7813 850.7813,269.7813 L852.5,269.7813 L852.5,276.2969 L850.7813,276.2969 C850.3438,276.2969 850.2188,276.3125 850.0625,276.4219 C849.8125,276.5781 849.6563,276.8594 849.6563,277.1563 C849.6563,277.4063 849.7969,277.6719 850.0156,277.8281 C850.1719,277.9531 850.375,278 850.7813,278 L855.9219,278 C856.6719,278 857.0313,277.7188 857.0313,277.1563 C857.0313,276.875 856.9219,276.625 856.6875,276.4531 C856.5156,276.3281 856.375,276.2969 855.9219,276.2969 L854.2031,276.2969 L854.2031,269.7813 Z " fill="#000000"/><text fill="#000000" font-family="sans-serif" font-size="12" font-style="italic" lengthAdjust="spacing" textLength="41" x="873.75" y="277.1543">ICoffee</text><line style="stroke:#A80036;stroke-width:1.5;" x1="803.5" x2="952.5" y1="289" y2="289"/><line style="stroke:#A80036;stroke-width:1.5;" x1="803.5" x2="952.5" y1="297" y2="297"/><text fill="#000000" font-family="sans-serif" font-size="11" lengthAdjust="spacing" textLength="100" x="808.5" y="311.2104">getCost(): Double</text><text fill="#000000" font-family="sans-serif" font-size="11" lengthAdjust="spacing" textLength="139" x="808.5" y="324.0151">getDescription(): Double</text><!--MD5=[1a7651d307f3bd113d3b1f801df86969]
class Decorateur.Patate.Fromage--><rect codeLine="5" fill="#FEFECE" filter="url(#fg0q8fshkhpvt)" height="48" id="Decorateur.Patate.Fromage" style="stroke:#A80036;stroke-width:1.5;" width="86" x="152" y="41"/><ellipse cx="167" cy="57" fill="#ADD1B2" rx="11" ry="11" style="stroke:#A80036;stroke-width:1.0;"/><path d="M169.3438,52.6719 C168.4063,52.2344 167.8125,52.0938 166.9375,52.0938 C164.3125,52.0938 162.3125,54.1719 162.3125,56.8906 L162.3125,58.0156 C162.3125,60.5938 164.4219,62.4844 167.3125,62.4844 C168.5313,62.4844 169.6875,62.1875 170.4375,61.6406 C171.0156,61.2344 171.3438,60.7813 171.3438,60.3906 C171.3438,59.9375 170.9531,59.5469 170.4844,59.5469 C170.2656,59.5469 170.0625,59.625 169.875,59.8125 C169.4219,60.2969 169.4219,60.2969 169.2344,60.3906 C168.8125,60.6563 168.125,60.7813 167.3594,60.7813 C165.3125,60.7813 164.0156,59.6875 164.0156,57.9844 L164.0156,56.8906 C164.0156,55.1094 165.2656,53.7969 167,53.7969 C167.5781,53.7969 168.1875,53.9531 168.6563,54.2031 C169.1406,54.4844 169.3125,54.7031 169.4063,55.1094 C169.4688,55.5156 169.5,55.6406 169.6406,55.7656 C169.7813,55.9063 170.0156,56.0156 170.2344,56.0156 C170.5,56.0156 170.7656,55.875 170.9375,55.6563 C171.0469,55.5 171.0781,55.3125 171.0781,54.8906 L171.0781,53.4688 C171.0781,53.0313 171.0625,52.9063 170.9688,52.75 C170.8125,52.4844 170.5313,52.3438 170.2344,52.3438 C169.9375,52.3438 169.7344,52.4375 169.5156,52.75 L169.3438,52.6719 Z " fill="#000000"/><text fill="#000000" font-family="sans-serif" font-size="12" lengthAdjust="spacing" textLength="54" x="181" y="61.1543">Fromage</text><line style="stroke:#A80036;stroke-width:1.5;" x1="153" x2="237" y1="73" y2="73"/><line style="stroke:#A80036;stroke-width:1.5;" x1="153" x2="237" y1="81" y2="81"/><!--MD5=[0f2066edac71b537af3d5e6e1135579c]
class Decorateur.Patate.Patate--><rect codeLine="6" fill="#FEFECE" filter="url(#fg0q8fshkhpvt)" height="48" id="Decorateur.Patate.Patate" style="stroke:#A80036;stroke-width:1.5;" width="68" x="197" y="149"/><ellipse cx="212" cy="165" fill="#ADD1B2" rx="11" ry="11" style="stroke:#A80036;stroke-width:1.0;"/><path d="M214.3438,160.6719 C213.4063,160.2344 212.8125,160.0938 211.9375,160.0938 C209.3125,160.0938 207.3125,162.1719 207.3125,164.8906 L207.3125,166.0156 C207.3125,168.5938 209.4219,170.4844 212.3125,170.4844 C213.5313,170.4844 214.6875,170.1875 215.4375,169.6406 C216.0156,169.2344 216.3438,168.7813 216.3438,168.3906 C216.3438,167.9375 215.9531,167.5469 215.4844,167.5469 C215.2656,167.5469 215.0625,167.625 214.875,167.8125 C214.4219,168.2969 214.4219,168.2969 214.2344,168.3906 C213.8125,168.6563 213.125,168.7813 212.3594,168.7813 C210.3125,168.7813 209.0156,167.6875 209.0156,165.9844 L209.0156,164.8906 C209.0156,163.1094 210.2656,161.7969 212,161.7969 C212.5781,161.7969 213.1875,161.9531 213.6563,162.2031 C214.1406,162.4844 214.3125,162.7031 214.4063,163.1094 C214.4688,163.5156 214.5,163.6406 214.6406,163.7656 C214.7813,163.9063 215.0156,164.0156 215.2344,164.0156 C215.5,164.0156 215.7656,163.875 215.9375,163.6563 C216.0469,163.5 216.0781,163.3125 216.0781,162.8906 L216.0781,161.4688 C216.0781,161.0313 216.0625,160.9063 215.9688,160.75 C215.8125,160.4844 215.5313,160.3438 215.2344,160.3438 C214.9375,160.3438 214.7344,160.4375 214.5156,160.75 L214.3438,160.6719 Z " fill="#000000"/><text fill="#000000" font-family="sans-serif" font-size="12" lengthAdjust="spacing" textLength="36" x="226" y="169.1543">Patate</text><line style="stroke:#A80036;stroke-width:1.5;" x1="198" x2="264" y1="181" y2="181"/><line style="stroke:#A80036;stroke-width:1.5;" x1="198" x2="264" y1="189" y2="189"/><!--MD5=[6e45591ac1eae5415329f1da61579a06]
class Decorateur.Patate.PatateDecorator--><rect codeLine="7" fill="#FEFECE" filter="url(#fg0q8fshkhpvt)" height="48" id="Decorateur.Patate.PatateDecorator" style="stroke:#A80036;stroke-width:1.5;" width="129" x="32.5" y="149"/><ellipse cx="47.5" cy="165" fill="#ADD1B2" rx="11" ry="11" style="stroke:#A80036;stroke-width:1.0;"/><path d="M49.8438,160.6719 C48.9063,160.2344 48.3125,160.0938 47.4375,160.0938 C44.8125,160.0938 42.8125,162.1719 42.8125,164.8906 L42.8125,166.0156 C42.8125,168.5938 44.9219,170.4844 47.8125,170.4844 C49.0313,170.4844 50.1875,170.1875 50.9375,169.6406 C51.5156,169.2344 51.8438,168.7813 51.8438,168.3906 C51.8438,167.9375 51.4531,167.5469 50.9844,167.5469 C50.7656,167.5469 50.5625,167.625 50.375,167.8125 C49.9219,168.2969 49.9219,168.2969 49.7344,168.3906 C49.3125,168.6563 48.625,168.7813 47.8594,168.7813 C45.8125,168.7813 44.5156,167.6875 44.5156,165.9844 L44.5156,164.8906 C44.5156,163.1094 45.7656,161.7969 47.5,161.7969 C48.0781,161.7969 48.6875,161.9531 49.1563,162.2031 C49.6406,162.4844 49.8125,162.7031 49.9063,163.1094 C49.9688,163.5156 50,163.6406 50.1406,163.7656 C50.2813,163.9063 50.5156,164.0156 50.7344,164.0156 C51,164.0156 51.2656,163.875 51.4375,163.6563 C51.5469,163.5 51.5781,163.3125 51.5781,162.8906 L51.5781,161.4688 C51.5781,161.0313 51.5625,160.9063 51.4688,160.75 C51.3125,160.4844 51.0313,160.3438 50.7344,160.3438 C50.4375,160.3438 50.2344,160.4375 50.0156,160.75 L49.8438,160.6719 Z " fill="#000000"/><text fill="#000000" font-family="sans-serif" font-size="12" lengthAdjust="spacing" textLength="97" x="61.5" y="169.1543">PatateDecorator</text><line style="stroke:#A80036;stroke-width:1.5;" x1="33.5" x2="160.5" y1="181" y2="181"/><line style="stroke:#A80036;stroke-width:1.5;" x1="33.5" x2="160.5" y1="189" y2="189"/><!--MD5=[dcea791f90c18493bfe9870dfd69dc1b]
class Decorateur.Patate.Sauce--><rect codeLine="8" fill="#FEFECE" filter="url(#fg0q8fshkhpvt)" height="48" id="Decorateur.Patate.Sauce" style="stroke:#A80036;stroke-width:1.5;" width="69" x="47.5" y="41"/><ellipse cx="62.5" cy="57" fill="#ADD1B2" rx="11" ry="11" style="stroke:#A80036;stroke-width:1.0;"/><path d="M64.8438,52.6719 C63.9063,52.2344 63.3125,52.0938 62.4375,52.0938 C59.8125,52.0938 57.8125,54.1719 57.8125,56.8906 L57.8125,58.0156 C57.8125,60.5938 59.9219,62.4844 62.8125,62.4844 C64.0313,62.4844 65.1875,62.1875 65.9375,61.6406 C66.5156,61.2344 66.8438,60.7813 66.8438,60.3906 C66.8438,59.9375 66.4531,59.5469 65.9844,59.5469 C65.7656,59.5469 65.5625,59.625 65.375,59.8125 C64.9219,60.2969 64.9219,60.2969 64.7344,60.3906 C64.3125,60.6563 63.625,60.7813 62.8594,60.7813 C60.8125,60.7813 59.5156,59.6875 59.5156,57.9844 L59.5156,56.8906 C59.5156,55.1094 60.7656,53.7969 62.5,53.7969 C63.0781,53.7969 63.6875,53.9531 64.1563,54.2031 C64.6406,54.4844 64.8125,54.7031 64.9063,55.1094 C64.9688,55.5156 65,55.6406 65.1406,55.7656 C65.2813,55.9063 65.5156,56.0156 65.7344,56.0156 C66,56.0156 66.2656,55.875 66.4375,55.6563 C66.5469,55.5 66.5781,55.3125 66.5781,54.8906 L66.5781,53.4688 C66.5781,53.0313 66.5625,52.9063 66.4688,52.75 C66.3125,52.4844 66.0313,52.3438 65.7344,52.3438 C65.4375,52.3438 65.2344,52.4375 65.0156,52.75 L64.8438,52.6719 Z " fill="#000000"/><text fill="#000000" font-family="sans-serif" font-size="12" lengthAdjust="spacing" textLength="37" x="76.5" y="61.1543">Sauce</text><line style="stroke:#A80036;stroke-width:1.5;" x1="48.5" x2="115.5" y1="73" y2="73"/><line style="stroke:#A80036;stroke-width:1.5;" x1="48.5" x2="115.5" y1="81" y2="81"/><!--MD5=[68810655318e0627213ab66426aa854d]
class Decorateur.Patate.IPatate--><rect codeLine="23" fill="#FEFECE" filter="url(#fg0q8fshkhpvt)" height="73.6094" id="Decorateur.Patate.IPatate" style="stroke:#A80036;stroke-width:1.5;" width="151" x="73.5" y="257"/><ellipse cx="123.75" cy="273" fill="#B4A7E5" rx="11" ry="11" style="stroke:#A80036;stroke-width:1.0;"/><path d="M124.7031,269.7813 L126.4219,269.7813 C126.8125,269.7813 127,269.75 127.125,269.6719 C127.3906,269.5156 127.5313,269.2344 127.5313,268.9375 C127.5313,268.6719 127.4219,268.4063 127.1875,268.2344 C127.0156,268.125 126.875,268.0938 126.4219,268.0938 L121.2813,268.0938 C120.8438,268.0938 120.7188,268.1094 120.5625,268.2031 C120.3125,268.3594 120.1563,268.6563 120.1563,268.9375 C120.1563,269.2188 120.2969,269.4688 120.5156,269.6406 C120.6719,269.75 120.8594,269.7813 121.2813,269.7813 L123,269.7813 L123,276.2969 L121.2813,276.2969 C120.8438,276.2969 120.7188,276.3125 120.5625,276.4219 C120.3125,276.5781 120.1563,276.8594 120.1563,277.1563 C120.1563,277.4063 120.2969,277.6719 120.5156,277.8281 C120.6719,277.9531 120.875,278 121.2813,278 L126.4219,278 C127.1719,278 127.5313,277.7188 127.5313,277.1563 C127.5313,276.875 127.4219,276.625 127.1875,276.4531 C127.0156,276.3281 126.875,276.2969 126.4219,276.2969 L124.7031,276.2969 L124.7031,269.7813 Z " fill="#000000"/><text fill="#000000" font-family="sans-serif" font-size="12" font-style="italic" lengthAdjust="spacing" textLength="42" x="144.25" y="277.1543">IPatate</text><line style="stroke:#A80036;stroke-width:1.5;" x1="74.5" x2="223.5" y1="289" y2="289"/><line style="stroke:#A80036;stroke-width:1.5;" x1="74.5" x2="223.5" y1="297" y2="297"/><text fill="#000000" font-family="sans-serif" font-size="11" lengthAdjust="spacing" textLength="100" x="79.5" y="311.2104">getCost(): Double</text><text fill="#000000" font-family="sans-serif" font-size="11" lengthAdjust="spacing" textLength="139" x="79.5" y="324.0151">getDescription(): Double</text><!--MD5=[ef4eb1b9327fe803904e01046368ea3e]
class Decorateur.Pizza.Mozzarella--><rect codeLine="9" fill="#FEFECE" filter="url(#fg0q8fshkhpvt)" height="48" id="Decorateur.Pizza.Mozzarella" style="stroke:#A80036;stroke-width:1.5;" width="97" x="616.5" y="41"/><ellipse cx="631.5" cy="57" fill="#ADD1B2" rx="11" ry="11" style="stroke:#A80036;stroke-width:1.0;"/><path d="M633.8438,52.6719 C632.9063,52.2344 632.3125,52.0938 631.4375,52.0938 C628.8125,52.0938 626.8125,54.1719 626.8125,56.8906 L626.8125,58.0156 C626.8125,60.5938 628.9219,62.4844 631.8125,62.4844 C633.0313,62.4844 634.1875,62.1875 634.9375,61.6406 C635.5156,61.2344 635.8438,60.7813 635.8438,60.3906 C635.8438,59.9375 635.4531,59.5469 634.9844,59.5469 C634.7656,59.5469 634.5625,59.625 634.375,59.8125 C633.9219,60.2969 633.9219,60.2969 633.7344,60.3906 C633.3125,60.6563 632.625,60.7813 631.8594,60.7813 C629.8125,60.7813 628.5156,59.6875 628.5156,57.9844 L628.5156,56.8906 C628.5156,55.1094 629.7656,53.7969 631.5,53.7969 C632.0781,53.7969 632.6875,53.9531 633.1563,54.2031 C633.6406,54.4844 633.8125,54.7031 633.9063,55.1094 C633.9688,55.5156 634,55.6406 634.1406,55.7656 C634.2813,55.9063 634.5156,56.0156 634.7344,56.0156 C635,56.0156 635.2656,55.875 635.4375,55.6563 C635.5469,55.5 635.5781,55.3125 635.5781,54.8906 L635.5781,53.4688 C635.5781,53.0313 635.5625,52.9063 635.4688,52.75 C635.3125,52.4844 635.0313,52.3438 634.7344,52.3438 C634.4375,52.3438 634.2344,52.4375 634.0156,52.75 L633.8438,52.6719 Z " fill="#000000"/><text fill="#000000" font-family="sans-serif" font-size="12" lengthAdjust="spacing" textLength="65" x="645.5" y="61.1543">Mozzarella</text><line style="stroke:#A80036;stroke-width:1.5;" x1="617.5" x2="712.5" y1="73" y2="73"/><line style="stroke:#A80036;stroke-width:1.5;" x1="617.5" x2="712.5" y1="81" y2="81"/><!--MD5=[ef10574f4598825f0a41e6d484a57399]
class Decorateur.Pizza.PizzaDecorator--><rect codeLine="10" fill="#FEFECE" filter="url(#fg0q8fshkhpvt)" height="48" id="Decorateur.Pizza.PizzaDecorator" style="stroke:#A80036;stroke-width:1.5;" width="123" x="321.5" y="149"/><ellipse cx="336.5" cy="165" fill="#ADD1B2" rx="11" ry="11" style="stroke:#A80036;stroke-width:1.0;"/><path d="M338.8438,160.6719 C337.9063,160.2344 337.3125,160.0938 336.4375,160.0938 C333.8125,160.0938 331.8125,162.1719 331.8125,164.8906 L331.8125,166.0156 C331.8125,168.5938 333.9219,170.4844 336.8125,170.4844 C338.0313,170.4844 339.1875,170.1875 339.9375,169.6406 C340.5156,169.2344 340.8438,168.7813 340.8438,168.3906 C340.8438,167.9375 340.4531,167.5469 339.9844,167.5469 C339.7656,167.5469 339.5625,167.625 339.375,167.8125 C338.9219,168.2969 338.9219,168.2969 338.7344,168.3906 C338.3125,168.6563 337.625,168.7813 336.8594,168.7813 C334.8125,168.7813 333.5156,167.6875 333.5156,165.9844 L333.5156,164.8906 C333.5156,163.1094 334.7656,161.7969 336.5,161.7969 C337.0781,161.7969 337.6875,161.9531 338.1563,162.2031 C338.6406,162.4844 338.8125,162.7031 338.9063,163.1094 C338.9688,163.5156 339,163.6406 339.1406,163.7656 C339.2813,163.9063 339.5156,164.0156 339.7344,164.0156 C340,164.0156 340.2656,163.875 340.4375,163.6563 C340.5469,163.5 340.5781,163.3125 340.5781,162.8906 L340.5781,161.4688 C340.5781,161.0313 340.5625,160.9063 340.4688,160.75 C340.3125,160.4844 340.0313,160.3438 339.7344,160.3438 C339.4375,160.3438 339.2344,160.4375 339.0156,160.75 L338.8438,160.6719 Z " fill="#000000"/><text fill="#000000" font-family="sans-serif" font-size="12" lengthAdjust="spacing" textLength="91" x="350.5" y="169.1543">PizzaDecorator</text><line style="stroke:#A80036;stroke-width:1.5;" x1="322.5" x2="443.5" y1="181" y2="181"/><line style="stroke:#A80036;stroke-width:1.5;" x1="322.5" x2="443.5" y1="189" y2="189"/><!--MD5=[2b2a8443434adaa6ebdce877e09aa9e8]
class Decorateur.Pizza.PizzaTopping--><rect codeLine="11" fill="#FEFECE" filter="url(#fg0q8fshkhpvt)" height="48" id="Decorateur.Pizza.PizzaTopping" style="stroke:#A80036;stroke-width:1.5;" width="111" x="470.5" y="41"/><ellipse cx="485.5" cy="57" fill="#ADD1B2" rx="11" ry="11" style="stroke:#A80036;stroke-width:1.0;"/><path d="M487.8438,52.6719 C486.9063,52.2344 486.3125,52.0938 485.4375,52.0938 C482.8125,52.0938 480.8125,54.1719 480.8125,56.8906 L480.8125,58.0156 C480.8125,60.5938 482.9219,62.4844 485.8125,62.4844 C487.0313,62.4844 488.1875,62.1875 488.9375,61.6406 C489.5156,61.2344 489.8438,60.7813 489.8438,60.3906 C489.8438,59.9375 489.4531,59.5469 488.9844,59.5469 C488.7656,59.5469 488.5625,59.625 488.375,59.8125 C487.9219,60.2969 487.9219,60.2969 487.7344,60.3906 C487.3125,60.6563 486.625,60.7813 485.8594,60.7813 C483.8125,60.7813 482.5156,59.6875 482.5156,57.9844 L482.5156,56.8906 C482.5156,55.1094 483.7656,53.7969 485.5,53.7969 C486.0781,53.7969 486.6875,53.9531 487.1563,54.2031 C487.6406,54.4844 487.8125,54.7031 487.9063,55.1094 C487.9688,55.5156 488,55.6406 488.1406,55.7656 C488.2813,55.9063 488.5156,56.0156 488.7344,56.0156 C489,56.0156 489.2656,55.875 489.4375,55.6563 C489.5469,55.5 489.5781,55.3125 489.5781,54.8906 L489.5781,53.4688 C489.5781,53.0313 489.5625,52.9063 489.4688,52.75 C489.3125,52.4844 489.0313,52.3438 488.7344,52.3438 C488.4375,52.3438 488.2344,52.4375 488.0156,52.75 L487.8438,52.6719 Z " fill="#000000"/><text fill="#000000" font-family="sans-serif" font-size="12" lengthAdjust="spacing" textLength="79" x="499.5" y="61.1543">PizzaTopping</text><line style="stroke:#A80036;stroke-width:1.5;" x1="471.5" x2="580.5" y1="73" y2="73"/><line style="stroke:#A80036;stroke-width:1.5;" x1="471.5" x2="580.5" y1="81" y2="81"/><!--MD5=[fbb79fcb666b69eabc6533a188dcb1dd]
class Decorateur.Pizza.PlainPizza--><rect codeLine="12" fill="#FEFECE" filter="url(#fg0q8fshkhpvt)" height="48" id="Decorateur.Pizza.PlainPizza" style="stroke:#A80036;stroke-width:1.5;" width="88" x="658" y="149"/><ellipse cx="673" cy="165" fill="#ADD1B2" rx="11" ry="11" style="stroke:#A80036;stroke-width:1.0;"/><path d="M675.3438,160.6719 C674.4063,160.2344 673.8125,160.0938 672.9375,160.0938 C670.3125,160.0938 668.3125,162.1719 668.3125,164.8906 L668.3125,166.0156 C668.3125,168.5938 670.4219,170.4844 673.3125,170.4844 C674.5313,170.4844 675.6875,170.1875 676.4375,169.6406 C677.0156,169.2344 677.3438,168.7813 677.3438,168.3906 C677.3438,167.9375 676.9531,167.5469 676.4844,167.5469 C676.2656,167.5469 676.0625,167.625 675.875,167.8125 C675.4219,168.2969 675.4219,168.2969 675.2344,168.3906 C674.8125,168.6563 674.125,168.7813 673.3594,168.7813 C671.3125,168.7813 670.0156,167.6875 670.0156,165.9844 L670.0156,164.8906 C670.0156,163.1094 671.2656,161.7969 673,161.7969 C673.5781,161.7969 674.1875,161.9531 674.6563,162.2031 C675.1406,162.4844 675.3125,162.7031 675.4063,163.1094 C675.4688,163.5156 675.5,163.6406 675.6406,163.7656 C675.7813,163.9063 676.0156,164.0156 676.2344,164.0156 C676.5,164.0156 676.7656,163.875 676.9375,163.6563 C677.0469,163.5 677.0781,163.3125 677.0781,162.8906 L677.0781,161.4688 C677.0781,161.0313 677.0625,160.9063 676.9688,160.75 C676.8125,160.4844 676.5313,160.3438 676.2344,160.3438 C675.9375,160.3438 675.7344,160.4375 675.5156,160.75 L675.3438,160.6719 Z " fill="#000000"/><text fill="#000000" font-family="sans-serif" font-size="12" lengthAdjust="spacing" textLength="56" x="687" y="169.1543">PlainPizza</text><line style="stroke:#A80036;stroke-width:1.5;" x1="659" x2="745" y1="181" y2="181"/><line style="stroke:#A80036;stroke-width:1.5;" x1="659" x2="745" y1="189" y2="189"/><!--MD5=[05b928510dce3b98e33d61668da71caa]
class Decorateur.Pizza.ThreeCheesePizza--><rect codeLine="13" fill="#FEFECE" filter="url(#fg0q8fshkhpvt)" height="48" id="Decorateur.Pizza.ThreeCheesePizza" style="stroke:#A80036;stroke-width:1.5;" width="143" x="479.5" y="149"/><ellipse cx="494.5" cy="165" fill="#ADD1B2" rx="11" ry="11" style="stroke:#A80036;stroke-width:1.0;"/><path d="M496.8438,160.6719 C495.9063,160.2344 495.3125,160.0938 494.4375,160.0938 C491.8125,160.0938 489.8125,162.1719 489.8125,164.8906 L489.8125,166.0156 C489.8125,168.5938 491.9219,170.4844 494.8125,170.4844 C496.0313,170.4844 497.1875,170.1875 497.9375,169.6406 C498.5156,169.2344 498.8438,168.7813 498.8438,168.3906 C498.8438,167.9375 498.4531,167.5469 497.9844,167.5469 C497.7656,167.5469 497.5625,167.625 497.375,167.8125 C496.9219,168.2969 496.9219,168.2969 496.7344,168.3906 C496.3125,168.6563 495.625,168.7813 494.8594,168.7813 C492.8125,168.7813 491.5156,167.6875 491.5156,165.9844 L491.5156,164.8906 C491.5156,163.1094 492.7656,161.7969 494.5,161.7969 C495.0781,161.7969 495.6875,161.9531 496.1563,162.2031 C496.6406,162.4844 496.8125,162.7031 496.9063,163.1094 C496.9688,163.5156 497,163.6406 497.1406,163.7656 C497.2813,163.9063 497.5156,164.0156 497.7344,164.0156 C498,164.0156 498.2656,163.875 498.4375,163.6563 C498.5469,163.5 498.5781,163.3125 498.5781,162.8906 L498.5781,161.4688 C498.5781,161.0313 498.5625,160.9063 498.4688,160.75 C498.3125,160.4844 498.0313,160.3438 497.7344,160.3438 C497.4375,160.3438 497.2344,160.4375 497.0156,160.75 L496.8438,160.6719 Z " fill="#000000"/><text fill="#000000" font-family="sans-serif" font-size="12" lengthAdjust="spacing" textLength="111" x="508.5" y="169.1543">ThreeCheesePizza</text><line style="stroke:#A80036;stroke-width:1.5;" x1="480.5" x2="621.5" y1="181" y2="181"/><line style="stroke:#A80036;stroke-width:1.5;" x1="480.5" x2="621.5" y1="189" y2="189"/><!--MD5=[bbb1f75836362aa2dec0febb5f9376e4]
class Decorateur.Pizza.TomatoSauce--><rect codeLine="14" fill="#FEFECE" filter="url(#fg0q8fshkhpvt)" height="48" id="Decorateur.Pizza.TomatoSauce" style="stroke:#A80036;stroke-width:1.5;" width="114" x="321" y="41"/><ellipse cx="336" cy="57" fill="#ADD1B2" rx="11" ry="11" style="stroke:#A80036;stroke-width:1.0;"/><path d="M338.3438,52.6719 C337.4063,52.2344 336.8125,52.0938 335.9375,52.0938 C333.3125,52.0938 331.3125,54.1719 331.3125,56.8906 L331.3125,58.0156 C331.3125,60.5938 333.4219,62.4844 336.3125,62.4844 C337.5313,62.4844 338.6875,62.1875 339.4375,61.6406 C340.0156,61.2344 340.3438,60.7813 340.3438,60.3906 C340.3438,59.9375 339.9531,59.5469 339.4844,59.5469 C339.2656,59.5469 339.0625,59.625 338.875,59.8125 C338.4219,60.2969 338.4219,60.2969 338.2344,60.3906 C337.8125,60.6563 337.125,60.7813 336.3594,60.7813 C334.3125,60.7813 333.0156,59.6875 333.0156,57.9844 L333.0156,56.8906 C333.0156,55.1094 334.2656,53.7969 336,53.7969 C336.5781,53.7969 337.1875,53.9531 337.6563,54.2031 C338.1406,54.4844 338.3125,54.7031 338.4063,55.1094 C338.4688,55.5156 338.5,55.6406 338.6406,55.7656 C338.7813,55.9063 339.0156,56.0156 339.2344,56.0156 C339.5,56.0156 339.7656,55.875 339.9375,55.6563 C340.0469,55.5 340.0781,55.3125 340.0781,54.8906 L340.0781,53.4688 C340.0781,53.0313 340.0625,52.9063 339.9688,52.75 C339.8125,52.4844 339.5313,52.3438 339.2344,52.3438 C338.9375,52.3438 338.7344,52.4375 338.5156,52.75 L338.3438,52.6719 Z " fill="#000000"/><text fill="#000000" font-family="sans-serif" font-size="12" lengthAdjust="spacing" textLength="82" x="350" y="61.1543">TomatoSauce</text><line style="stroke:#A80036;stroke-width:1.5;" x1="322" x2="434" y1="73" y2="73"/><line style="stroke:#A80036;stroke-width:1.5;" x1="322" x2="434" y1="81" y2="81"/><!--MD5=[a14d6ca2d6b0d27d9651479c1e480dc5]
class Decorateur.Pizza.IPizza--><rect codeLine="27" fill="#FEFECE" filter="url(#fg0q8fshkhpvt)" height="73.6094" id="Decorateur.Pizza.IPizza" style="stroke:#A80036;stroke-width:1.5;" width="151" x="398.5" y="257"/><ellipse cx="453.25" cy="273" fill="#B4A7E5" rx="11" ry="11" style="stroke:#A80036;stroke-width:1.0;"/><path d="M454.2031,269.7813 L455.9219,269.7813 C456.3125,269.7813 456.5,269.75 456.625,269.6719 C456.8906,269.5156 457.0313,269.2344 457.0313,268.9375 C457.0313,268.6719 456.9219,268.4063 456.6875,268.2344 C456.5156,268.125 456.375,268.0938 455.9219,268.0938 L450.7813,268.0938 C450.3438,268.0938 450.2188,268.1094 450.0625,268.2031 C449.8125,268.3594 449.6563,268.6563 449.6563,268.9375 C449.6563,269.2188 449.7969,269.4688 450.0156,269.6406 C450.1719,269.75 450.3594,269.7813 450.7813,269.7813 L452.5,269.7813 L452.5,276.2969 L450.7813,276.2969 C450.3438,276.2969 450.2188,276.3125 450.0625,276.4219 C449.8125,276.5781 449.6563,276.8594 449.6563,277.1563 C449.6563,277.4063 449.7969,277.6719 450.0156,277.8281 C450.1719,277.9531 450.375,278 450.7813,278 L455.9219,278 C456.6719,278 457.0313,277.7188 457.0313,277.1563 C457.0313,276.875 456.9219,276.625 456.6875,276.4531 C456.5156,276.3281 456.375,276.2969 455.9219,276.2969 L454.2031,276.2969 L454.2031,269.7813 Z " fill="#000000"/><text fill="#000000" font-family="sans-serif" font-size="12" font-style="italic" lengthAdjust="spacing" textLength="33" x="473.75" y="277.1543">IPizza</text><line style="stroke:#A80036;stroke-width:1.5;" x1="399.5" x2="548.5" y1="289" y2="289"/><line style="stroke:#A80036;stroke-width:1.5;" x1="399.5" x2="548.5" y1="297" y2="297"/><text fill="#000000" font-family="sans-serif" font-size="11" lengthAdjust="spacing" textLength="100" x="404.5" y="311.2104">getCost(): Double</text><text fill="#000000" font-family="sans-serif" font-size="11" lengthAdjust="spacing" textLength="139" x="404.5" y="324.0151">getDescription(): Double</text><!--MD5=[99bc70ab931fe402592ca8132743d59b]
class Decorateur.Repas.Repas--><rect codeLine="15" fill="#FEFECE" filter="url(#fg0q8fshkhpvt)" height="48" id="Decorateur.Repas.Repas" style="stroke:#A80036;stroke-width:1.5;" width="69" x="439.5" y="540"/><ellipse cx="454.5" cy="556" fill="#ADD1B2" rx="11" ry="11" style="stroke:#A80036;stroke-width:1.0;"/><path d="M456.8438,551.6719 C455.9063,551.2344 455.3125,551.0938 454.4375,551.0938 C451.8125,551.0938 449.8125,553.1719 449.8125,555.8906 L449.8125,557.0156 C449.8125,559.5938 451.9219,561.4844 454.8125,561.4844 C456.0313,561.4844 457.1875,561.1875 457.9375,560.6406 C458.5156,560.2344 458.8438,559.7813 458.8438,559.3906 C458.8438,558.9375 458.4531,558.5469 457.9844,558.5469 C457.7656,558.5469 457.5625,558.625 457.375,558.8125 C456.9219,559.2969 456.9219,559.2969 456.7344,559.3906 C456.3125,559.6563 455.625,559.7813 454.8594,559.7813 C452.8125,559.7813 451.5156,558.6875 451.5156,556.9844 L451.5156,555.8906 C451.5156,554.1094 452.7656,552.7969 454.5,552.7969 C455.0781,552.7969 455.6875,552.9531 456.1563,553.2031 C456.6406,553.4844 456.8125,553.7031 456.9063,554.1094 C456.9688,554.5156 457,554.6406 457.1406,554.7656 C457.2813,554.9063 457.5156,555.0156 457.7344,555.0156 C458,555.0156 458.2656,554.875 458.4375,554.6563 C458.5469,554.5 458.5781,554.3125 458.5781,553.8906 L458.5781,552.4688 C458.5781,552.0313 458.5625,551.9063 458.4688,551.75 C458.3125,551.4844 458.0313,551.3438 457.7344,551.3438 C457.4375,551.3438 457.2344,551.4375 457.0156,551.75 L456.8438,551.6719 Z " fill="#000000"/><text fill="#000000" font-family="sans-serif" font-size="12" lengthAdjust="spacing" textLength="37" x="468.5" y="560.1543">Repas</text><line style="stroke:#A80036;stroke-width:1.5;" x1="440.5" x2="507.5" y1="572" y2="572"/><line style="stroke:#A80036;stroke-width:1.5;" x1="440.5" x2="507.5" y1="580" y2="580"/><!--MD5=[03d7ecbb3f6518717a10ccb241ee3f20]
class Decorateur.Repas.IRepas--><rect codeLine="31" fill="#FEFECE" filter="url(#fg0q8fshkhpvt)" height="73.6094" id="Decorateur.Repas.IRepas" style="stroke:#A80036;stroke-width:1.5;" width="151" x="398.5" y="406"/><ellipse cx="449.75" cy="422" fill="#B4A7E5" rx="11" ry="11" style="stroke:#A80036;stroke-width:1.0;"/><path d="M450.7031,418.7813 L452.4219,418.7813 C452.8125,418.7813 453,418.75 453.125,418.6719 C453.3906,418.5156 453.5313,418.2344 453.5313,417.9375 C453.5313,417.6719 453.4219,417.4063 453.1875,417.2344 C453.0156,417.125 452.875,417.0938 452.4219,417.0938 L447.2813,417.0938 C446.8438,417.0938 446.7188,417.1094 446.5625,417.2031 C446.3125,417.3594 446.1563,417.6563 446.1563,417.9375 C446.1563,418.2188 446.2969,418.4688 446.5156,418.6406 C446.6719,418.75 446.8594,418.7813 447.2813,418.7813 L449,418.7813 L449,425.2969 L447.2813,425.2969 C446.8438,425.2969 446.7188,425.3125 446.5625,425.4219 C446.3125,425.5781 446.1563,425.8594 446.1563,426.1563 C446.1563,426.4063 446.2969,426.6719 446.5156,426.8281 C446.6719,426.9531 446.875,427 447.2813,427 L452.4219,427 C453.1719,427 453.5313,426.7188 453.5313,426.1563 C453.5313,425.875 453.4219,425.625 453.1875,425.4531 C453.0156,425.3281 452.875,425.2969 452.4219,425.2969 L450.7031,425.2969 L450.7031,418.7813 Z " fill="#000000"/><text fill="#000000" font-family="sans-serif" font-size="12" font-style="italic" lengthAdjust="spacing" textLength="40" x="470.25" y="426.1543">IRepas</text><line style="stroke:#A80036;stroke-width:1.5;" x1="399.5" x2="548.5" y1="438" y2="438"/><line style="stroke:#A80036;stroke-width:1.5;" x1="399.5" x2="548.5" y1="446" y2="446"/><text fill="#000000" font-family="sans-serif" font-size="11" lengthAdjust="spacing" textLength="100" x="404.5" y="460.2104">getCost(): Double</text><text fill="#000000" font-family="sans-serif" font-size="11" lengthAdjust="spacing" textLength="139" x="404.5" y="473.0151">getDescription(): Double</text><!--MD5=[8479184e23c2bec09445fccfd361f5d2]
class java.util.ArrayList--><rect codeLine="16" fill="#FEFECE" filter="url(#fg0q8fshkhpvt)" height="48" id="java.util.ArrayList" style="stroke:#A80036;stroke-width:1.5;" width="84" x="547" y="663"/><ellipse cx="562" cy="679" fill="#ADD1B2" rx="11" ry="11" style="stroke:#A80036;stroke-width:1.0;"/><path d="M564.3438,674.6719 C563.4063,674.2344 562.8125,674.0938 561.9375,674.0938 C559.3125,674.0938 557.3125,676.1719 557.3125,678.8906 L557.3125,680.0156 C557.3125,682.5938 559.4219,684.4844 562.3125,684.4844 C563.5313,684.4844 564.6875,684.1875 565.4375,683.6406 C566.0156,683.2344 566.3438,682.7813 566.3438,682.3906 C566.3438,681.9375 565.9531,681.5469 565.4844,681.5469 C565.2656,681.5469 565.0625,681.625 564.875,681.8125 C564.4219,682.2969 564.4219,682.2969 564.2344,682.3906 C563.8125,682.6563 563.125,682.7813 562.3594,682.7813 C560.3125,682.7813 559.0156,681.6875 559.0156,679.9844 L559.0156,678.8906 C559.0156,677.1094 560.2656,675.7969 562,675.7969 C562.5781,675.7969 563.1875,675.9531 563.6563,676.2031 C564.1406,676.4844 564.3125,676.7031 564.4063,677.1094 C564.4688,677.5156 564.5,677.6406 564.6406,677.7656 C564.7813,677.9063 565.0156,678.0156 565.2344,678.0156 C565.5,678.0156 565.7656,677.875 565.9375,677.6563 C566.0469,677.5 566.0781,677.3125 566.0781,676.8906 L566.0781,675.4688 C566.0781,675.0313 566.0625,674.9063 565.9688,674.75 C565.8125,674.4844 565.5313,674.3438 565.2344,674.3438 C564.9375,674.3438 564.7344,674.4375 564.5156,674.75 L564.3438,674.6719 Z " fill="#000000"/><text fill="#000000" font-family="sans-serif" font-size="12" lengthAdjust="spacing" textLength="52" x="576" y="683.1543">ArrayList</text><line style="stroke:#A80036;stroke-width:1.5;" x1="548" x2="630" y1="695" y2="695"/><line style="stroke:#A80036;stroke-width:1.5;" x1="548" x2="630" y1="703" y2="703"/><!--MD5=[af67028c7c879a354eef1ccc049398d0]
class java.util.Iterator--><rect codeLine="17" fill="#FEFECE" filter="url(#fg0q8fshkhpvt)" height="48" id="java.util.Iterator" style="stroke:#A80036;stroke-width:1.5;" width="76" x="436" y="663"/><ellipse cx="451" cy="679" fill="#ADD1B2" rx="11" ry="11" style="stroke:#A80036;stroke-width:1.0;"/><path d="M453.3438,674.6719 C452.4063,674.2344 451.8125,674.0938 450.9375,674.0938 C448.3125,674.0938 446.3125,676.1719 446.3125,678.8906 L446.3125,680.0156 C446.3125,682.5938 448.4219,684.4844 451.3125,684.4844 C452.5313,684.4844 453.6875,684.1875 454.4375,683.6406 C455.0156,683.2344 455.3438,682.7813 455.3438,682.3906 C455.3438,681.9375 454.9531,681.5469 454.4844,681.5469 C454.2656,681.5469 454.0625,681.625 453.875,681.8125 C453.4219,682.2969 453.4219,682.2969 453.2344,682.3906 C452.8125,682.6563 452.125,682.7813 451.3594,682.7813 C449.3125,682.7813 448.0156,681.6875 448.0156,679.9844 L448.0156,678.8906 C448.0156,677.1094 449.2656,675.7969 451,675.7969 C451.5781,675.7969 452.1875,675.9531 452.6563,676.2031 C453.1406,676.4844 453.3125,676.7031 453.4063,677.1094 C453.4688,677.5156 453.5,677.6406 453.6406,677.7656 C453.7813,677.9063 454.0156,678.0156 454.2344,678.0156 C454.5,678.0156 454.7656,677.875 454.9375,677.6563 C455.0469,677.5 455.0781,677.3125 455.0781,676.8906 L455.0781,675.4688 C455.0781,675.0313 455.0625,674.9063 454.9688,674.75 C454.8125,674.4844 454.5313,674.3438 454.2344,674.3438 C453.9375,674.3438 453.7344,674.4375 453.5156,674.75 L453.3438,674.6719 Z " fill="#000000"/><text fill="#000000" font-family="sans-serif" font-size="12" lengthAdjust="spacing" textLength="44" x="465" y="683.1543">Iterator</text><line style="stroke:#A80036;stroke-width:1.5;" x1="437" x2="511" y1="695" y2="695"/><line style="stroke:#A80036;stroke-width:1.5;" x1="437" x2="511" y1="703" y2="703"/><!--MD5=[6b7a9fc05e2cf62df8c1411c2048df3f]
class java.util.List--><rect codeLine="18" fill="#FEFECE" filter="url(#fg0q8fshkhpvt)" height="48" id="java.util.List" style="stroke:#A80036;stroke-width:1.5;" width="52" x="349" y="663"/><ellipse cx="364" cy="679" fill="#ADD1B2" rx="11" ry="11" style="stroke:#A80036;stroke-width:1.0;"/><path d="M366.3438,674.6719 C365.4063,674.2344 364.8125,674.0938 363.9375,674.0938 C361.3125,674.0938 359.3125,676.1719 359.3125,678.8906 L359.3125,680.0156 C359.3125,682.5938 361.4219,684.4844 364.3125,684.4844 C365.5313,684.4844 366.6875,684.1875 367.4375,683.6406 C368.0156,683.2344 368.3438,682.7813 368.3438,682.3906 C368.3438,681.9375 367.9531,681.5469 367.4844,681.5469 C367.2656,681.5469 367.0625,681.625 366.875,681.8125 C366.4219,682.2969 366.4219,682.2969 366.2344,682.3906 C365.8125,682.6563 365.125,682.7813 364.3594,682.7813 C362.3125,682.7813 361.0156,681.6875 361.0156,679.9844 L361.0156,678.8906 C361.0156,677.1094 362.2656,675.7969 364,675.7969 C364.5781,675.7969 365.1875,675.9531 365.6563,676.2031 C366.1406,676.4844 366.3125,676.7031 366.4063,677.1094 C366.4688,677.5156 366.5,677.6406 366.6406,677.7656 C366.7813,677.9063 367.0156,678.0156 367.2344,678.0156 C367.5,678.0156 367.7656,677.875 367.9375,677.6563 C368.0469,677.5 368.0781,677.3125 368.0781,676.8906 L368.0781,675.4688 C368.0781,675.0313 368.0625,674.9063 367.9688,674.75 C367.8125,674.4844 367.5313,674.3438 367.2344,674.3438 C366.9375,674.3438 366.7344,674.4375 366.5156,674.75 L366.3438,674.6719 Z " fill="#000000"/><text fill="#000000" font-family="sans-serif" font-size="12" lengthAdjust="spacing" textLength="20" x="378" y="683.1543">List</text><line style="stroke:#A80036;stroke-width:1.5;" x1="350" x2="400" y1="695" y2="695"/><line style="stroke:#A80036;stroke-width:1.5;" x1="350" x2="400" y1="703" y2="703"/><!--MD5=[9e4c182a398f9a1a6b9e1c85fdde2643]
link Decorateur.Coffee.CoffeeDecorator to Decorateur.Coffee.ICoffee--><path codeLine="35" d="M857.989,197.227 C857.402,208.588 858.042,222.803 859.597,236.775 " fill="none" id="Decorateur.Coffee.CoffeeDecorator-to-Decorateur.Coffee.ICoffee" style="stroke:#A80036;stroke-width:1.0;stroke-dasharray:7.0,7.0;"/><polygon fill="none" points="866.546,235.915,862.496,256.714,852.692,237.929,866.546,235.915" style="stroke:#A80036;stroke-width:1.0;"/><!--MD5=[9e4c182a398f9a1a6b9e1c85fdde2643]
link Decorateur.Coffee.CoffeeDecorator to Decorateur.Coffee.ICoffee--><path codeLine="57" d="M879.304,197.227 C883.36,212.683 886.105,233.421 886.756,251.647 " fill="none" id="Decorateur.Coffee.CoffeeDecorator-to-Decorateur.Coffee.ICoffee-1" style="stroke:#A80036;stroke-width:1.0;"/><polygon fill="#A80036" points="886.883,256.714,890.6555,247.6163,886.7573,251.7156,882.658,247.8174,886.883,256.714" style="stroke:#A80036;stroke-width:1.0;"/><!--MD5=[aa46e3b9aba74649caf8f26527977ddf]
link Decorateur.Coffee.SimpleCoffee to Decorateur.Coffee.ICoffee--><path codeLine="36" d="M993.894,197.227 C977.763,210.557 956.88,227.814 937.293,244.001 " fill="none" id="Decorateur.Coffee.SimpleCoffee-to-Decorateur.Coffee.ICoffee" style="stroke:#A80036;stroke-width:1.0;stroke-dasharray:7.0,7.0;"/><polygon fill="none" points="941.505,249.601,921.628,256.946,932.586,238.81,941.505,249.601" style="stroke:#A80036;stroke-width:1.0;"/><!--MD5=[97fad5f8af46f18bafc1204ff7cf7a1a]
link Decorateur.Coffee.WithMilk to Decorateur.Coffee.CoffeeDecorator--><path codeLine="37" d="M967.009,89 C950.388,102.658 928.945,120.278 910.094,135.768 " fill="none" id="Decorateur.Coffee.WithMilk-to-Decorateur.Coffee.CoffeeDecorator" style="stroke:#A80036;stroke-width:1.0;"/><polygon fill="none" points="914.278,141.389,894.382,148.678,905.39,130.573,914.278,141.389" style="stroke:#A80036;stroke-width:1.0;"/><!--MD5=[582586eaa33893b82b20ee610ff8f5d9]
link Decorateur.Coffee.WithSprinkles to Decorateur.Coffee.CoffeeDecorator--><path codeLine="38" d="M862.868,89 C863.305,100.588 863.85,115.029 864.362,128.601 " fill="none" id="Decorateur.Coffee.WithSprinkles-to-Decorateur.Coffee.CoffeeDecorator" style="stroke:#A80036;stroke-width:1.0;"/><polygon fill="none" points="871.361,128.429,865.12,148.678,857.371,128.957,871.361,128.429" style="stroke:#A80036;stroke-width:1.0;"/><!--MD5=[e903ea49143e6aaa569aaa47c103fdae]
link Decorateur.Patate.Fromage to Decorateur.Patate.PatateDecorator--><path codeLine="39" d="M173.735,89 C161.619,102.106 146.129,118.86 132.243,133.88 " fill="none" id="Decorateur.Patate.Fromage-to-Decorateur.Patate.PatateDecorator" style="stroke:#A80036;stroke-width:1.0;"/><polygon fill="none" points="137.279,138.745,118.561,148.678,126.999,129.241,137.279,138.745" style="stroke:#A80036;stroke-width:1.0;"/><!--MD5=[004941efb1fdc393f3fb180c772ce48e]
link Decorateur.Patate.Patate to Decorateur.Patate.IPatate--><path codeLine="40" d="M214.995,197.227 C206.529,209.513 195.764,225.136 185.396,240.181 " fill="none" id="Decorateur.Patate.Patate-to-Decorateur.Patate.IPatate" style="stroke:#A80036;stroke-width:1.0;stroke-dasharray:7.0,7.0;"/><polygon fill="none" points="191.116,244.217,174.004,256.714,179.588,236.273,191.116,244.217" style="stroke:#A80036;stroke-width:1.0;"/><!--MD5=[22860a09d79d1ac993027a67964f4412]
link Decorateur.Patate.PatateDecorator to Decorateur.Patate.IPatate--><path codeLine="41" d="M96.7966,197.227 C100.141,208.984 105.827,223.798 112.356,238.237 " fill="none" id="Decorateur.Patate.PatateDecorator-to-Decorateur.Patate.IPatate" style="stroke:#A80036;stroke-width:1.0;stroke-dasharray:7.0,7.0;"/><polygon fill="none" points="118.886,235.662,121.299,256.714,106.285,241.761,118.886,235.662" style="stroke:#A80036;stroke-width:1.0;"/><!--MD5=[22860a09d79d1ac993027a67964f4412]
link Decorateur.Patate.PatateDecorator to Decorateur.Patate.IPatate--><path codeLine="58" d="M118.112,197.227 C127.363,212.683 137.079,233.421 143.855,251.647 " fill="none" id="Decorateur.Patate.PatateDecorator-to-Decorateur.Patate.IPatate-1" style="stroke:#A80036;stroke-width:1.0;"/><polygon fill="#A80036" points="145.686,256.714,146.3908,246.8904,143.9875,252.0113,138.8666,249.608,145.686,256.714" style="stroke:#A80036;stroke-width:1.0;"/><!--MD5=[78cde6a7898b572a6a6d829f128c9822]
link Decorateur.Patate.Sauce to Decorateur.Patate.PatateDecorator--><path codeLine="42" d="M85.2548,89 C86.8946,100.588 88.9381,115.029 90.8587,128.601 " fill="none" id="Decorateur.Patate.Sauce-to-Decorateur.Patate.PatateDecorator" style="stroke:#A80036;stroke-width:1.0;"/><polygon fill="none" points="97.8284,127.895,93.6998,148.678,83.9665,129.857,97.8284,127.895" style="stroke:#A80036;stroke-width:1.0;"/><!--MD5=[3788f200575cf4a3b0631b7d601f803b]
link Decorateur.Pizza.Mozzarella to Decorateur.Pizza.PizzaDecorator--><path codeLine="43" d="M616.201,84.343 C574.103,100.167 512.478,123.331 463.149,141.873 " fill="none" id="Decorateur.Pizza.Mozzarella-to-Decorateur.Pizza.PizzaDecorator" style="stroke:#A80036;stroke-width:1.0;"/><polygon fill="none" points="465.413,148.5,444.229,148.985,460.487,135.395,465.413,148.5" style="stroke:#A80036;stroke-width:1.0;"/><!--MD5=[f9ec0c1c0a8bcf7e9d39f20eb10441e4]
link Decorateur.Pizza.PizzaDecorator to Decorateur.Pizza.IPizza--><path codeLine="44" d="M390.409,197.227 C398.091,209.777 409.583,225.809 421.695,241.151 " fill="none" id="Decorateur.Pizza.PizzaDecorator-to-Decorateur.Pizza.IPizza" style="stroke:#A80036;stroke-width:1.0;stroke-dasharray:7.0,7.0;"/><polygon fill="none" points="427.176,236.796,434.407,256.714,416.333,245.653,427.176,236.796" style="stroke:#A80036;stroke-width:1.0;"/><!--MD5=[f9ec0c1c0a8bcf7e9d39f20eb10441e4]
link Decorateur.Pizza.PizzaDecorator to Decorateur.Pizza.IPizza--><path codeLine="59" d="M411.724,197.227 C426.285,212.948 443.118,234.132 455.953,252.579 " fill="none" id="Decorateur.Pizza.PizzaDecorator-to-Decorateur.Pizza.IPizza-1" style="stroke:#A80036;stroke-width:1.0;"/><polygon fill="#A80036" points="458.794,256.714,456.9947,247.0309,455.9628,252.5928,450.4008,251.5609,458.794,256.714" style="stroke:#A80036;stroke-width:1.0;"/><!--MD5=[cbcb9529cb2c456730ccefd7e7f3d978]
link Decorateur.Pizza.PizzaTopping to Decorateur.Pizza.PizzaDecorator--><path codeLine="45" d="M494.971,89 C476.174,102.934 451.813,120.991 430.617,136.704 " fill="none" id="Decorateur.Pizza.PizzaTopping-to-Decorateur.Pizza.PizzaDecorator" style="stroke:#A80036;stroke-width:1.0;"/><polygon fill="none" points="434.698,142.392,414.462,148.678,426.361,131.145,434.698,142.392" style="stroke:#A80036;stroke-width:1.0;"/><!--MD5=[55d6b94b991fb1839f2900535285787b]
link Decorateur.Pizza.PlainPizza to Decorateur.Pizza.IPizza--><path codeLine="46" d="M657.769,197.085 C630.343,211.4 594.164,230.283 561.166,247.506 " fill="none" id="Decorateur.Pizza.PlainPizza-to-Decorateur.Pizza.IPizza" style="stroke:#A80036;stroke-width:1.0;stroke-dasharray:7.0,7.0;"/><polygon fill="none" points="564.205,253.815,543.236,256.864,557.728,241.404,564.205,253.815" style="stroke:#A80036;stroke-width:1.0;"/><!--MD5=[4f77ea18172b36ab95be401157c0cccb]
link Decorateur.Pizza.ThreeCheesePizza to Decorateur.Pizza.IPizza--><path codeLine="47" d="M535.971,197.227 C528.107,209.381 518.129,224.8 508.491,239.695 " fill="none" id="Decorateur.Pizza.ThreeCheesePizza-to-Decorateur.Pizza.IPizza" style="stroke:#A80036;stroke-width:1.0;stroke-dasharray:7.0,7.0;"/><polygon fill="none" points="514.221,243.725,497.479,256.714,502.467,236.12,514.221,243.725" style="stroke:#A80036;stroke-width:1.0;"/><!--MD5=[9ee2945d5f002990f6a9ccf39fd63e3a]
link Decorateur.Pizza.TomatoSauce to Decorateur.Pizza.PizzaDecorator--><path codeLine="48" d="M379.085,89 C379.632,100.588 380.313,115.029 380.953,128.601 " fill="none" id="Decorateur.Pizza.TomatoSauce-to-Decorateur.Pizza.PizzaDecorator" style="stroke:#A80036;stroke-width:1.0;"/><polygon fill="none" points="387.95,128.371,381.9,148.678,373.965,129.03,387.95,128.371" style="stroke:#A80036;stroke-width:1.0;"/><!--MD5=[d67163dfe7912d77497e4fb1ac04b8a4]
link Decorateur.Repas.Repas to java.util.ArrayList--><path codeLine="49" d="M497.531,588.041 C507.364,597.795 518.843,609.347 529,620 C541.001,632.586 554.02,646.8313 564.853,658.8574 " fill="none" id="Decorateur.Repas.Repas-to-java.util.ArrayList" style="stroke:#A80036;stroke-width:1.0;stroke-dasharray:7.0,7.0;"/><polygon fill="#A80036" points="568.439,662.8452,565.3947,653.4787,565.0954,659.1276,559.4465,658.8284,568.439,662.8452" style="stroke:#A80036;stroke-width:1.0;"/><!--MD5=[666ce127641bcd8a1426b299a53ff7bc]
link Decorateur.Repas.Repas to java.util.Iterator--><path codeLine="50" d="M474,588.044 C474,607.766 474,636.243 474,657.4143 " fill="none" id="Decorateur.Repas.Repas-to-java.util.Iterator" style="stroke:#A80036;stroke-width:1.0;stroke-dasharray:7.0,7.0;"/><polygon fill="#A80036" points="474,662.6297,478,653.6297,474,657.6297,470,653.6297,474,662.6297" style="stroke:#A80036;stroke-width:1.0;"/><!--MD5=[72fcb3decaaa3863dc3ee85442c722c0]
link Decorateur.Repas.Repas to java.util.List--><path codeLine="51" d="M448.276,588.007 C438.323,597.471 427.149,608.822 418,620 C408.202,631.97 398.668,646.2468 391.078,658.4553 " fill="none" id="Decorateur.Repas.Repas-to-java.util.List" style="stroke:#A80036;stroke-width:1.0;stroke-dasharray:7.0,7.0;"/><polygon fill="#A80036" points="388.372,662.8514,396.4956,657.2829,390.9925,658.5931,389.6823,653.0901,388.372,662.8514" style="stroke:#A80036;stroke-width:1.0;"/><!--MD5=[35bdddd61262c7adb39f63a4d2760cde]
link Decorateur.Coffee.ICoffee to Decorateur.Repas.IRepas--><path codeLine="52" d="M813.349,331.103 C796.881,339.555 779.019,348.097 762,355 C699.112,380.51 625.872,402.536 568.988,418.044 " fill="none" id="Decorateur.Coffee.ICoffee-to-Decorateur.Repas.IRepas" style="stroke:#A80036;stroke-width:1.0;"/><polygon fill="none" points="570.725,424.825,549.594,423.252,567.094,411.304,570.725,424.825" style="stroke:#A80036;stroke-width:1.0;"/><!--MD5=[9649b40bd6edca539f8a880fc301285b]
link Decorateur.Patate.IPatate to Decorateur.Repas.IRepas--><path codeLine="53" d="M224.788,329.279 C271.108,350.23 330.722,377.194 380.029,399.496 " fill="none" id="Decorateur.Patate.IPatate-to-Decorateur.Repas.IRepas" style="stroke:#A80036;stroke-width:1.0;"/><polygon fill="none" points="383.035,393.173,398.373,407.793,377.266,405.929,383.035,393.173" style="stroke:#A80036;stroke-width:1.0;"/><!--MD5=[487a28a5885e956d7ab333fc6828d750]
link Decorateur.Pizza.IPizza to Decorateur.Repas.IRepas--><path codeLine="54" d="M474,331.337 C474,347.742 474,367.498 474,385.751 " fill="none" id="Decorateur.Pizza.IPizza-to-Decorateur.Repas.IRepas" style="stroke:#A80036;stroke-width:1.0;"/><polygon fill="none" points="481,385.826,474,405.826,467,385.826,481,385.826" style="stroke:#A80036;stroke-width:1.0;"/><!--MD5=[859ba7e3c6d82f7155787da3b7672c39]
reverse link Decorateur.Repas.IRepas to Decorateur.Repas.Repas--><path codeLine="56" d="M474,485.117 C474,503.43 474,524.319 474,539.85 " fill="none" id="Decorateur.Repas.IRepas-backto-Decorateur.Repas.Repas" style="stroke:#A80036;stroke-width:1.0;"/><polygon fill="#A80036" points="474,480.027,470,489.027,474,485.027,478,489.027,474,480.027" style="stroke:#A80036;stroke-width:1.0;"/><text fill="#000000" font-family="sans-serif" font-size="13" lengthAdjust="spacing" textLength="7" x="466.3984" y="499.792">*</text><!--MD5=[ea86446a41484c4ac728a1b6065719f9]
@startuml
abstract class Decorateur.Coffee.CoffeeDecorator
class Decorateur.Coffee.SimpleCoffee
class Decorateur.Coffee.WithMilk
class Decorateur.Coffee.WithSprinkles
class Decorateur.Patate.Fromage
class Decorateur.Patate.Patate
class Decorateur.Patate.PatateDecorator
class Decorateur.Patate.Sauce
class Decorateur.Pizza.Mozzarella
class Decorateur.Pizza.PizzaDecorator
class Decorateur.Pizza.PizzaTopping
class Decorateur.Pizza.PlainPizza
class Decorateur.Pizza.ThreeCheesePizza
class Decorateur.Pizza.TomatoSauce
class Decorateur.Repas.Repas
class java.util.ArrayList
class java.util.Iterator
class java.util.List
interface Decorateur.Coffee.ICoffee{
    getCost(): Double
    getDescription(): Double
}
interface Decorateur.Patate.IPatate{
    getCost(): Double
    getDescription(): Double
}
interface Decorateur.Pizza.IPizza{
    getCost(): Double
    getDescription(): Double
}
interface Decorateur.Repas.IRepas{
    getCost(): Double
    getDescription(): Double
}
Decorateur.Coffee.CoffeeDecorator ..|> Decorateur.Coffee.ICoffee
Decorateur.Coffee.SimpleCoffee ..|> Decorateur.Coffee.ICoffee
Decorateur.Coffee.WithMilk - -|> Decorateur.Coffee.CoffeeDecorator
Decorateur.Coffee.WithSprinkles - -|> Decorateur.Coffee.CoffeeDecorator
Decorateur.Patate.Fromage - -|> Decorateur.Patate.PatateDecorator
Decorateur.Patate.Patate ..|> Decorateur.Patate.IPatate
Decorateur.Patate.PatateDecorator ..|> Decorateur.Patate.IPatate
Decorateur.Patate.Sauce - -|> Decorateur.Patate.PatateDecorator
Decorateur.Pizza.Mozzarella - -|> Decorateur.Pizza.PizzaDecorator
Decorateur.Pizza.PizzaDecorator ..|> Decorateur.Pizza.IPizza
Decorateur.Pizza.PizzaTopping - -|> Decorateur.Pizza.PizzaDecorator
Decorateur.Pizza.PlainPizza ..|> Decorateur.Pizza.IPizza
Decorateur.Pizza.ThreeCheesePizza ..|> Decorateur.Pizza.IPizza
Decorateur.Pizza.TomatoSauce - -|> Decorateur.Pizza.PizzaDecorator
Decorateur.Repas.Repas ..> java.util.ArrayList
Decorateur.Repas.Repas ..> java.util.Iterator
Decorateur.Repas.Repas ..> java.util.List
Decorateur.Coffee.ICoffee - -|> Decorateur.Repas.IRepas
Decorateur.Patate.IPatate - -|> Decorateur.Repas.IRepas
Decorateur.Pizza.IPizza - -|> Decorateur.Repas.IRepas

Decorateur.Repas.Repas -u-> "*" Decorateur.Repas.IRepas
Decorateur.Coffee.CoffeeDecorator - -> Decorateur.Coffee.ICoffee
Decorateur.Patate.PatateDecorator - -> Decorateur.Patate.IPatate
Decorateur.Pizza.PizzaDecorator - -> Decorateur.Pizza.IPizza
@enduml

PlantUML version 1.2021.2beta9(Unknown compile time)
(GPL source distribution)
Java Runtime: Java(TM) SE Runtime Environment
JVM: Java HotSpot(TM) 64-Bit Server VM
Default Encoding: UTF-8
Language: en
Country: US
--></g></svg>