<?xml version="1.0" encoding="UTF-8" standalone="no"?><svg xmlns="http://www.w3.org/2000/svg" xmlns:xlink="http://www.w3.org/1999/xlink" contentScriptType="application/ecmascript" contentStyleType="text/css" height="682px" preserveAspectRatio="none" style="width:1112px;height:682px;" version="1.1" viewBox="0 0 1112 682" width="1112px" zoomAndPan="magnify"><defs><filter height="300%" id="f1b8l6wrrxxchs" width="300%" x="-1" y="-1"><feGaussianBlur result="blurOut" stdDeviation="2.0"/><feColorMatrix in="blurOut" result="blurOut2" type="matrix" values="0 0 0 0 0 0 0 0 0 0 0 0 0 0 0 0 0 0 .4 0"/><feOffset dx="4.0" dy="4.0" in="blurOut2" result="blurOut3"/><feBlend in="SourceGraphic" in2="blurOut3" mode="normal"/></filter></defs><g><!--MD5=[3bd8f26cbe9b36720c5638fadb7f6a74]
cluster Decorateur.Coffee--><polygon fill="#FFFFFF" filter="url(#f1b8l6wrrxxchs)" points="786,6,939,6,946,28.2969,1095,28.2969,1095,321,786,321,786,6" style="stroke:#000000;stroke-width:1.5;"/><line style="stroke:#000000;stroke-width:1.5;" x1="786" x2="946" y1="28.2969" y2="28.2969"/><text fill="#000000" font-family="sans-serif" font-size="14" font-weight="bold" lengthAdjust="spacing" textLength="147" x="790" y="20.9951">Decorateur.Coffee</text><!--MD5=[21568f805cafeeb9f0d4444041afb287]
cluster Decorateur.Patate--><polygon fill="#FFFFFF" filter="url(#f1b8l6wrrxxchs)" points="16,6,172,6,179,28.2969,281,28.2969,281,321,16,321,16,6" style="stroke:#000000;stroke-width:1.5;"/><line style="stroke:#000000;stroke-width:1.5;" x1="16" x2="179" y1="28.2969" y2="28.2969"/><text fill="#000000" font-family="sans-serif" font-size="14" font-weight="bold" lengthAdjust="spacing" textLength="150" x="20" y="20.9951">Decorateur.Patate</text><!--MD5=[2dad1840cd4dc0f22a2277f8c580eb75]
cluster Decorateur.Pizza--><polygon fill="#FFFFFF" filter="url(#f1b8l6wrrxxchs)" points="305,6,449,6,456,28.2969,762,28.2969,762,321,305,321,305,6" style="stroke:#000000;stroke-width:1.5;"/><line style="stroke:#000000;stroke-width:1.5;" x1="305" x2="456" y1="28.2969" y2="28.2969"/><text fill="#000000" font-family="sans-serif" font-size="14" font-weight="bold" lengthAdjust="spacing" textLength="138" x="309" y="20.9951">Decorateur.Pizza</text><!--MD5=[8633360484c1895758c5923f9a2fb532]
cluster Decorateur.Repas--><polygon fill="#FFFFFF" filter="url(#f1b8l6wrrxxchs)" points="666,345,816,345,823,367.2969,826,367.2969,826,552,666,552,666,345" style="stroke:#000000;stroke-width:1.5;"/><line style="stroke:#000000;stroke-width:1.5;" x1="666" x2="823" y1="367.2969" y2="367.2969"/><text fill="#000000" font-family="sans-serif" font-size="14" font-weight="bold" lengthAdjust="spacing" textLength="144" x="670" y="359.9951">Decorateur.Repas</text><!--MD5=[7db3c59d38ae5b37b484eb2df9368145]
cluster java.util--><polygon fill="#FFFFFF" filter="url(#f1b8l6wrrxxchs)" points="605,576,678,576,685,598.2969,919,598.2969,919,675,605,675,605,576" style="stroke:#000000;stroke-width:1.5;"/><line style="stroke:#000000;stroke-width:1.5;" x1="605" x2="685" y1="598.2969" y2="598.2969"/><text fill="#000000" font-family="sans-serif" font-size="14" font-weight="bold" lengthAdjust="spacing" textLength="67" x="609" y="590.9951">java.util</text><!--MD5=[ed50e28a5a07b8d2c86c3b5a60da1aee]
class Decorateur.Coffee.CoffeeDecorator--><rect codeLine="1" fill="#FEFECE" filter="url(#f1b8l6wrrxxchs)" height="48" id="Decorateur.Coffee.CoffeeDecorator" style="stroke:#A80036;stroke-width:1.5;" width="128" x="802" y="149"/><ellipse cx="817" cy="165" fill="#A9DCDF" rx="11" ry="11" style="stroke:#A80036;stroke-width:1.0;"/><path d="M819.0781,166.8125 L819.4688,167.7969 L819.0781,167.7969 C818.625,167.7969 818.5156,167.8125 818.3594,167.9219 C818.1094,168.0781 817.9531,168.3594 817.9531,168.6563 C817.9531,168.9219 818.0938,169.1719 818.3125,169.3281 C818.4531,169.4531 818.6563,169.5 819.0781,169.5 L821.4375,169.5 C821.7969,169.5 822.0156,169.4688 822.1563,169.375 C822.4063,169.2344 822.5625,168.9375 822.5625,168.6563 C822.5625,168.375 822.4219,168.125 822.2031,167.9688 C822.0313,167.8281 821.875,167.7969 821.4063,167.7969 L818.0156,159.5938 L814.3438,159.5938 C813.8906,159.5938 813.7656,159.6094 813.6094,159.7031 C813.3594,159.875 813.2031,160.1563 813.2031,160.4375 C813.2031,160.7188 813.3438,160.9688 813.5625,161.1406 C813.7344,161.25 813.9063,161.2813 814.3438,161.2813 L815.4219,161.2813 L812.7813,167.7969 C812.3594,167.7969 812.2031,167.8125 812.0469,167.9219 C811.7969,168.0781 811.6406,168.3594 811.6406,168.6563 C811.6406,169.2188 812.0156,169.5 812.7656,169.5 L815.0313,169.5 C815.3906,169.5 815.6094,169.4688 815.7344,169.375 C816,169.2344 816.1406,168.9375 816.1406,168.6563 C816.1406,168.375 816.0156,168.125 815.7969,167.9531 C815.625,167.8281 815.4844,167.7969 815.0313,167.7969 L814.6406,167.7969 L815.0313,166.8125 L819.0781,166.8125 Z M818.375,165.1094 L815.7031,165.1094 L817.0469,161.8438 L818.375,165.1094 Z " fill="#000000"/><text fill="#000000" font-family="sans-serif" font-size="12" font-style="italic" lengthAdjust="spacing" textLength="96" x="831" y="169.1543">CoffeeDecorator</text><line style="stroke:#A80036;stroke-width:1.5;" x1="803" x2="929" y1="181" y2="181"/><line style="stroke:#A80036;stroke-width:1.5;" x1="803" x2="929" y1="189" y2="189"/><!--MD5=[184e192bee52c1f6c47451937f19840e]
class Decorateur.Coffee.SimpleCoffee--><rect codeLine="2" fill="#FEFECE" filter="url(#f1b8l6wrrxxchs)" height="48" id="Decorateur.Coffee.SimpleCoffee" style="stroke:#A80036;stroke-width:1.5;" width="113" x="965.5" y="149"/><ellipse cx="980.5" cy="165" fill="#ADD1B2" rx="11" ry="11" style="stroke:#A80036;stroke-width:1.0;"/><path d="M982.8438,160.6719 C981.9063,160.2344 981.3125,160.0938 980.4375,160.0938 C977.8125,160.0938 975.8125,162.1719 975.8125,164.8906 L975.8125,166.0156 C975.8125,168.5938 977.9219,170.4844 980.8125,170.4844 C982.0313,170.4844 983.1875,170.1875 983.9375,169.6406 C984.5156,169.2344 984.8438,168.7813 984.8438,168.3906 C984.8438,167.9375 984.4531,167.5469 983.9844,167.5469 C983.7656,167.5469 983.5625,167.625 983.375,167.8125 C982.9219,168.2969 982.9219,168.2969 982.7344,168.3906 C982.3125,168.6563 981.625,168.7813 980.8594,168.7813 C978.8125,168.7813 977.5156,167.6875 977.5156,165.9844 L977.5156,164.8906 C977.5156,163.1094 978.7656,161.7969 980.5,161.7969 C981.0781,161.7969 981.6875,161.9531 982.1563,162.2031 C982.6406,162.4844 982.8125,162.7031 982.9063,163.1094 C982.9688,163.5156 983,163.6406 983.1406,163.7656 C983.2813,163.9063 983.5156,164.0156 983.7344,164.0156 C984,164.0156 984.2656,163.875 984.4375,163.6563 C984.5469,163.5 984.5781,163.3125 984.5781,162.8906 L984.5781,161.4688 C984.5781,161.0313 984.5625,160.9063 984.4688,160.75 C984.3125,160.4844 984.0313,160.3438 983.7344,160.3438 C983.4375,160.3438 983.2344,160.4375 983.0156,160.75 L982.8438,160.6719 Z " fill="#000000"/><text fill="#000000" font-family="sans-serif" font-size="12" lengthAdjust="spacing" textLength="81" x="994.5" y="169.1543">SimpleCoffee</text><line style="stroke:#A80036;stroke-width:1.5;" x1="966.5" x2="1077.5" y1="181" y2="181"/><line style="stroke:#A80036;stroke-width:1.5;" x1="966.5" x2="1077.5" y1="189" y2="189"/><!--MD5=[b40d133bb663cdc8db53fb6cc851cba6]
class Decorateur.Coffee.WithMilk--><rect codeLine="3" fill="#FEFECE" filter="url(#f1b8l6wrrxxchs)" height="48" id="Decorateur.Coffee.WithMilk" style="stroke:#A80036;stroke-width:1.5;" width="81" x="954.5" y="41"/><ellipse cx="969.5" cy="57" fill="#ADD1B2" rx="11" ry="11" style="stroke:#A80036;stroke-width:1.0;"/><path d="M971.8438,52.6719 C970.9063,52.2344 970.3125,52.0938 969.4375,52.0938 C966.8125,52.0938 964.8125,54.1719 964.8125,56.8906 L964.8125,58.0156 C964.8125,60.5938 966.9219,62.4844 969.8125,62.4844 C971.0313,62.4844 972.1875,62.1875 972.9375,61.6406 C973.5156,61.2344 973.8438,60.7813 973.8438,60.3906 C973.8438,59.9375 973.4531,59.5469 972.9844,59.5469 C972.7656,59.5469 972.5625,59.625 972.375,59.8125 C971.9219,60.2969 971.9219,60.2969 971.7344,60.3906 C971.3125,60.6563 970.625,60.7813 969.8594,60.7813 C967.8125,60.7813 966.5156,59.6875 966.5156,57.9844 L966.5156,56.8906 C966.5156,55.1094 967.7656,53.7969 969.5,53.7969 C970.0781,53.7969 970.6875,53.9531 971.1563,54.2031 C971.6406,54.4844 971.8125,54.7031 971.9063,55.1094 C971.9688,55.5156 972,55.6406 972.1406,55.7656 C972.2813,55.9063 972.5156,56.0156 972.7344,56.0156 C973,56.0156 973.2656,55.875 973.4375,55.6563 C973.5469,55.5 973.5781,55.3125 973.5781,54.8906 L973.5781,53.4688 C973.5781,53.0313 973.5625,52.9063 973.4688,52.75 C973.3125,52.4844 973.0313,52.3438 972.7344,52.3438 C972.4375,52.3438 972.2344,52.4375 972.0156,52.75 L971.8438,52.6719 Z " fill="#000000"/><text fill="#000000" font-family="sans-serif" font-size="12" lengthAdjust="spacing" textLength="49" x="983.5" y="61.1543">WithMilk</text><line style="stroke:#A80036;stroke-width:1.5;" x1="955.5" x2="1034.5" y1="73" y2="73"/><line style="stroke:#A80036;stroke-width:1.5;" x1="955.5" x2="1034.5" y1="81" y2="81"/><!--MD5=[c01e9610b33b5694159e567e85fdfdc0]
class Decorateur.Coffee.WithSprinkles--><rect codeLine="4" fill="#FEFECE" filter="url(#f1b8l6wrrxxchs)" height="48" id="Decorateur.Coffee.WithSprinkles" style="stroke:#A80036;stroke-width:1.5;" width="114" x="805" y="41"/><ellipse cx="820" cy="57" fill="#ADD1B2" rx="11" ry="11" style="stroke:#A80036;stroke-width:1.0;"/><path d="M822.3438,52.6719 C821.4063,52.2344 820.8125,52.0938 819.9375,52.0938 C817.3125,52.0938 815.3125,54.1719 815.3125,56.8906 L815.3125,58.0156 C815.3125,60.5938 817.4219,62.4844 820.3125,62.4844 C821.5313,62.4844 822.6875,62.1875 823.4375,61.6406 C824.0156,61.2344 824.3438,60.7813 824.3438,60.3906 C824.3438,59.9375 823.9531,59.5469 823.4844,59.5469 C823.2656,59.5469 823.0625,59.625 822.875,59.8125 C822.4219,60.2969 822.4219,60.2969 822.2344,60.3906 C821.8125,60.6563 821.125,60.7813 820.3594,60.7813 C818.3125,60.7813 817.0156,59.6875 817.0156,57.9844 L817.0156,56.8906 C817.0156,55.1094 818.2656,53.7969 820,53.7969 C820.5781,53.7969 821.1875,53.9531 821.6563,54.2031 C822.1406,54.4844 822.3125,54.7031 822.4063,55.1094 C822.4688,55.5156 822.5,55.6406 822.6406,55.7656 C822.7813,55.9063 823.0156,56.0156 823.2344,56.0156 C823.5,56.0156 823.7656,55.875 823.9375,55.6563 C824.0469,55.5 824.0781,55.3125 824.0781,54.8906 L824.0781,53.4688 C824.0781,53.0313 824.0625,52.9063 823.9688,52.75 C823.8125,52.4844 823.5313,52.3438 823.2344,52.3438 C822.9375,52.3438 822.7344,52.4375 822.5156,52.75 L822.3438,52.6719 Z " fill="#000000"/><text fill="#000000" font-family="sans-serif" font-size="12" lengthAdjust="spacing" textLength="82" x="834" y="61.1543">WithSprinkles</text><line style="stroke:#A80036;stroke-width:1.5;" x1="806" x2="918" y1="73" y2="73"/><line style="stroke:#A80036;stroke-width:1.5;" x1="806" x2="918" y1="81" y2="81"/><!--MD5=[542fc820ee6a05c2db9e0116160673ff]
class Decorateur.Coffee.ICoffee--><rect codeLine="19" fill="#FEFECE" filter="url(#f1b8l6wrrxxchs)" height="48" id="Decorateur.Coffee.ICoffee" style="stroke:#A80036;stroke-width:1.5;" width="73" x="829.5" y="257"/><ellipse cx="844.5" cy="273" fill="#B4A7E5" rx="11" ry="11" style="stroke:#A80036;stroke-width:1.0;"/><path d="M845.4531,269.7813 L847.1719,269.7813 C847.5625,269.7813 847.75,269.75 847.875,269.6719 C848.1406,269.5156 848.2813,269.2344 848.2813,268.9375 C848.2813,268.6719 848.1719,268.4063 847.9375,268.2344 C847.7656,268.125 847.625,268.0938 847.1719,268.0938 L842.0313,268.0938 C841.5938,268.0938 841.4688,268.1094 841.3125,268.2031 C841.0625,268.3594 840.9063,268.6563 840.9063,268.9375 C840.9063,269.2188 841.0469,269.4688 841.2656,269.6406 C841.4219,269.75 841.6094,269.7813 842.0313,269.7813 L843.75,269.7813 L843.75,276.2969 L842.0313,276.2969 C841.5938,276.2969 841.4688,276.3125 841.3125,276.4219 C841.0625,276.5781 840.9063,276.8594 840.9063,277.1563 C840.9063,277.4063 841.0469,277.6719 841.2656,277.8281 C841.4219,277.9531 841.625,278 842.0313,278 L847.1719,278 C847.9219,278 848.2813,277.7188 848.2813,277.1563 C848.2813,276.875 848.1719,276.625 847.9375,276.4531 C847.7656,276.3281 847.625,276.2969 847.1719,276.2969 L845.4531,276.2969 L845.4531,269.7813 Z " fill="#000000"/><text fill="#000000" font-family="sans-serif" font-size="12" font-style="italic" lengthAdjust="spacing" textLength="41" x="858.5" y="277.1543">ICoffee</text><line style="stroke:#A80036;stroke-width:1.5;" x1="830.5" x2="901.5" y1="289" y2="289"/><line style="stroke:#A80036;stroke-width:1.5;" x1="830.5" x2="901.5" y1="297" y2="297"/><!--MD5=[1a7651d307f3bd113d3b1f801df86969]
class Decorateur.Patate.Fromage--><rect codeLine="5" fill="#FEFECE" filter="url(#f1b8l6wrrxxchs)" height="48" id="Decorateur.Patate.Fromage" style="stroke:#A80036;stroke-width:1.5;" width="86" x="152" y="41"/><ellipse cx="167" cy="57" fill="#ADD1B2" rx="11" ry="11" style="stroke:#A80036;stroke-width:1.0;"/><path d="M169.3438,52.6719 C168.4063,52.2344 167.8125,52.0938 166.9375,52.0938 C164.3125,52.0938 162.3125,54.1719 162.3125,56.8906 L162.3125,58.0156 C162.3125,60.5938 164.4219,62.4844 167.3125,62.4844 C168.5313,62.4844 169.6875,62.1875 170.4375,61.6406 C171.0156,61.2344 171.3438,60.7813 171.3438,60.3906 C171.3438,59.9375 170.9531,59.5469 170.4844,59.5469 C170.2656,59.5469 170.0625,59.625 169.875,59.8125 C169.4219,60.2969 169.4219,60.2969 169.2344,60.3906 C168.8125,60.6563 168.125,60.7813 167.3594,60.7813 C165.3125,60.7813 164.0156,59.6875 164.0156,57.9844 L164.0156,56.8906 C164.0156,55.1094 165.2656,53.7969 167,53.7969 C167.5781,53.7969 168.1875,53.9531 168.6563,54.2031 C169.1406,54.4844 169.3125,54.7031 169.4063,55.1094 C169.4688,55.5156 169.5,55.6406 169.6406,55.7656 C169.7813,55.9063 170.0156,56.0156 170.2344,56.0156 C170.5,56.0156 170.7656,55.875 170.9375,55.6563 C171.0469,55.5 171.0781,55.3125 171.0781,54.8906 L171.0781,53.4688 C171.0781,53.0313 171.0625,52.9063 170.9688,52.75 C170.8125,52.4844 170.5313,52.3438 170.2344,52.3438 C169.9375,52.3438 169.7344,52.4375 169.5156,52.75 L169.3438,52.6719 Z " fill="#000000"/><text fill="#000000" font-family="sans-serif" font-size="12" lengthAdjust="spacing" textLength="54" x="181" y="61.1543">Fromage</text><line style="stroke:#A80036;stroke-width:1.5;" x1="153" x2="237" y1="73" y2="73"/><line style="stroke:#A80036;stroke-width:1.5;" x1="153" x2="237" y1="81" y2="81"/><!--MD5=[0f2066edac71b537af3d5e6e1135579c]
class Decorateur.Patate.Patate--><rect codeLine="6" fill="#FEFECE" filter="url(#f1b8l6wrrxxchs)" height="48" id="Decorateur.Patate.Patate" style="stroke:#A80036;stroke-width:1.5;" width="68" x="197" y="149"/><ellipse cx="212" cy="165" fill="#ADD1B2" rx="11" ry="11" style="stroke:#A80036;stroke-width:1.0;"/><path d="M214.3438,160.6719 C213.4063,160.2344 212.8125,160.0938 211.9375,160.0938 C209.3125,160.0938 207.3125,162.1719 207.3125,164.8906 L207.3125,166.0156 C207.3125,168.5938 209.4219,170.4844 212.3125,170.4844 C213.5313,170.4844 214.6875,170.1875 215.4375,169.6406 C216.0156,169.2344 216.3438,168.7813 216.3438,168.3906 C216.3438,167.9375 215.9531,167.5469 215.4844,167.5469 C215.2656,167.5469 215.0625,167.625 214.875,167.8125 C214.4219,168.2969 214.4219,168.2969 214.2344,168.3906 C213.8125,168.6563 213.125,168.7813 212.3594,168.7813 C210.3125,168.7813 209.0156,167.6875 209.0156,165.9844 L209.0156,164.8906 C209.0156,163.1094 210.2656,161.7969 212,161.7969 C212.5781,161.7969 213.1875,161.9531 213.6563,162.2031 C214.1406,162.4844 214.3125,162.7031 214.4063,163.1094 C214.4688,163.5156 214.5,163.6406 214.6406,163.7656 C214.7813,163.9063 215.0156,164.0156 215.2344,164.0156 C215.5,164.0156 215.7656,163.875 215.9375,163.6563 C216.0469,163.5 216.0781,163.3125 216.0781,162.8906 L216.0781,161.4688 C216.0781,161.0313 216.0625,160.9063 215.9688,160.75 C215.8125,160.4844 215.5313,160.3438 215.2344,160.3438 C214.9375,160.3438 214.7344,160.4375 214.5156,160.75 L214.3438,160.6719 Z " fill="#000000"/><text fill="#000000" font-family="sans-serif" font-size="12" lengthAdjust="spacing" textLength="36" x="226" y="169.1543">Patate</text><line style="stroke:#A80036;stroke-width:1.5;" x1="198" x2="264" y1="181" y2="181"/><line style="stroke:#A80036;stroke-width:1.5;" x1="198" x2="264" y1="189" y2="189"/><!--MD5=[6e45591ac1eae5415329f1da61579a06]
class Decorateur.Patate.PatateDecorator--><rect codeLine="7" fill="#FEFECE" filter="url(#f1b8l6wrrxxchs)" height="48" id="Decorateur.Patate.PatateDecorator" style="stroke:#A80036;stroke-width:1.5;" width="129" x="32.5" y="149"/><ellipse cx="47.5" cy="165" fill="#ADD1B2" rx="11" ry="11" style="stroke:#A80036;stroke-width:1.0;"/><path d="M49.8438,160.6719 C48.9063,160.2344 48.3125,160.0938 47.4375,160.0938 C44.8125,160.0938 42.8125,162.1719 42.8125,164.8906 L42.8125,166.0156 C42.8125,168.5938 44.9219,170.4844 47.8125,170.4844 C49.0313,170.4844 50.1875,170.1875 50.9375,169.6406 C51.5156,169.2344 51.8438,168.7813 51.8438,168.3906 C51.8438,167.9375 51.4531,167.5469 50.9844,167.5469 C50.7656,167.5469 50.5625,167.625 50.375,167.8125 C49.9219,168.2969 49.9219,168.2969 49.7344,168.3906 C49.3125,168.6563 48.625,168.7813 47.8594,168.7813 C45.8125,168.7813 44.5156,167.6875 44.5156,165.9844 L44.5156,164.8906 C44.5156,163.1094 45.7656,161.7969 47.5,161.7969 C48.0781,161.7969 48.6875,161.9531 49.1563,162.2031 C49.6406,162.4844 49.8125,162.7031 49.9063,163.1094 C49.9688,163.5156 50,163.6406 50.1406,163.7656 C50.2813,163.9063 50.5156,164.0156 50.7344,164.0156 C51,164.0156 51.2656,163.875 51.4375,163.6563 C51.5469,163.5 51.5781,163.3125 51.5781,162.8906 L51.5781,161.4688 C51.5781,161.0313 51.5625,160.9063 51.4688,160.75 C51.3125,160.4844 51.0313,160.3438 50.7344,160.3438 C50.4375,160.3438 50.2344,160.4375 50.0156,160.75 L49.8438,160.6719 Z " fill="#000000"/><text fill="#000000" font-family="sans-serif" font-size="12" lengthAdjust="spacing" textLength="97" x="61.5" y="169.1543">PatateDecorator</text><line style="stroke:#A80036;stroke-width:1.5;" x1="33.5" x2="160.5" y1="181" y2="181"/><line style="stroke:#A80036;stroke-width:1.5;" x1="33.5" x2="160.5" y1="189" y2="189"/><!--MD5=[dcea791f90c18493bfe9870dfd69dc1b]
class Decorateur.Patate.Sauce--><rect codeLine="8" fill="#FEFECE" filter="url(#f1b8l6wrrxxchs)" height="48" id="Decorateur.Patate.Sauce" style="stroke:#A80036;stroke-width:1.5;" width="69" x="47.5" y="41"/><ellipse cx="62.5" cy="57" fill="#ADD1B2" rx="11" ry="11" style="stroke:#A80036;stroke-width:1.0;"/><path d="M64.8438,52.6719 C63.9063,52.2344 63.3125,52.0938 62.4375,52.0938 C59.8125,52.0938 57.8125,54.1719 57.8125,56.8906 L57.8125,58.0156 C57.8125,60.5938 59.9219,62.4844 62.8125,62.4844 C64.0313,62.4844 65.1875,62.1875 65.9375,61.6406 C66.5156,61.2344 66.8438,60.7813 66.8438,60.3906 C66.8438,59.9375 66.4531,59.5469 65.9844,59.5469 C65.7656,59.5469 65.5625,59.625 65.375,59.8125 C64.9219,60.2969 64.9219,60.2969 64.7344,60.3906 C64.3125,60.6563 63.625,60.7813 62.8594,60.7813 C60.8125,60.7813 59.5156,59.6875 59.5156,57.9844 L59.5156,56.8906 C59.5156,55.1094 60.7656,53.7969 62.5,53.7969 C63.0781,53.7969 63.6875,53.9531 64.1563,54.2031 C64.6406,54.4844 64.8125,54.7031 64.9063,55.1094 C64.9688,55.5156 65,55.6406 65.1406,55.7656 C65.2813,55.9063 65.5156,56.0156 65.7344,56.0156 C66,56.0156 66.2656,55.875 66.4375,55.6563 C66.5469,55.5 66.5781,55.3125 66.5781,54.8906 L66.5781,53.4688 C66.5781,53.0313 66.5625,52.9063 66.4688,52.75 C66.3125,52.4844 66.0313,52.3438 65.7344,52.3438 C65.4375,52.3438 65.2344,52.4375 65.0156,52.75 L64.8438,52.6719 Z " fill="#000000"/><text fill="#000000" font-family="sans-serif" font-size="12" lengthAdjust="spacing" textLength="37" x="76.5" y="61.1543">Sauce</text><line style="stroke:#A80036;stroke-width:1.5;" x1="48.5" x2="115.5" y1="73" y2="73"/><line style="stroke:#A80036;stroke-width:1.5;" x1="48.5" x2="115.5" y1="81" y2="81"/><!--MD5=[68810655318e0627213ab66426aa854d]
class Decorateur.Patate.IPatate--><rect codeLine="20" fill="#FEFECE" filter="url(#f1b8l6wrrxxchs)" height="48" id="Decorateur.Patate.IPatate" style="stroke:#A80036;stroke-width:1.5;" width="74" x="191" y="257"/><ellipse cx="206" cy="273" fill="#B4A7E5" rx="11" ry="11" style="stroke:#A80036;stroke-width:1.0;"/><path d="M206.9531,269.7813 L208.6719,269.7813 C209.0625,269.7813 209.25,269.75 209.375,269.6719 C209.6406,269.5156 209.7813,269.2344 209.7813,268.9375 C209.7813,268.6719 209.6719,268.4063 209.4375,268.2344 C209.2656,268.125 209.125,268.0938 208.6719,268.0938 L203.5313,268.0938 C203.0938,268.0938 202.9688,268.1094 202.8125,268.2031 C202.5625,268.3594 202.4063,268.6563 202.4063,268.9375 C202.4063,269.2188 202.5469,269.4688 202.7656,269.6406 C202.9219,269.75 203.1094,269.7813 203.5313,269.7813 L205.25,269.7813 L205.25,276.2969 L203.5313,276.2969 C203.0938,276.2969 202.9688,276.3125 202.8125,276.4219 C202.5625,276.5781 202.4063,276.8594 202.4063,277.1563 C202.4063,277.4063 202.5469,277.6719 202.7656,277.8281 C202.9219,277.9531 203.125,278 203.5313,278 L208.6719,278 C209.4219,278 209.7813,277.7188 209.7813,277.1563 C209.7813,276.875 209.6719,276.625 209.4375,276.4531 C209.2656,276.3281 209.125,276.2969 208.6719,276.2969 L206.9531,276.2969 L206.9531,269.7813 Z " fill="#000000"/><text fill="#000000" font-family="sans-serif" font-size="12" font-style="italic" lengthAdjust="spacing" textLength="42" x="220" y="277.1543">IPatate</text><line style="stroke:#A80036;stroke-width:1.5;" x1="192" x2="264" y1="289" y2="289"/><line style="stroke:#A80036;stroke-width:1.5;" x1="192" x2="264" y1="297" y2="297"/><!--MD5=[ef4eb1b9327fe803904e01046368ea3e]
class Decorateur.Pizza.Mozzarella--><rect codeLine="9" fill="#FEFECE" filter="url(#f1b8l6wrrxxchs)" height="48" id="Decorateur.Pizza.Mozzarella" style="stroke:#A80036;stroke-width:1.5;" width="97" x="616.5" y="41"/><ellipse cx="631.5" cy="57" fill="#ADD1B2" rx="11" ry="11" style="stroke:#A80036;stroke-width:1.0;"/><path d="M633.8438,52.6719 C632.9063,52.2344 632.3125,52.0938 631.4375,52.0938 C628.8125,52.0938 626.8125,54.1719 626.8125,56.8906 L626.8125,58.0156 C626.8125,60.5938 628.9219,62.4844 631.8125,62.4844 C633.0313,62.4844 634.1875,62.1875 634.9375,61.6406 C635.5156,61.2344 635.8438,60.7813 635.8438,60.3906 C635.8438,59.9375 635.4531,59.5469 634.9844,59.5469 C634.7656,59.5469 634.5625,59.625 634.375,59.8125 C633.9219,60.2969 633.9219,60.2969 633.7344,60.3906 C633.3125,60.6563 632.625,60.7813 631.8594,60.7813 C629.8125,60.7813 628.5156,59.6875 628.5156,57.9844 L628.5156,56.8906 C628.5156,55.1094 629.7656,53.7969 631.5,53.7969 C632.0781,53.7969 632.6875,53.9531 633.1563,54.2031 C633.6406,54.4844 633.8125,54.7031 633.9063,55.1094 C633.9688,55.5156 634,55.6406 634.1406,55.7656 C634.2813,55.9063 634.5156,56.0156 634.7344,56.0156 C635,56.0156 635.2656,55.875 635.4375,55.6563 C635.5469,55.5 635.5781,55.3125 635.5781,54.8906 L635.5781,53.4688 C635.5781,53.0313 635.5625,52.9063 635.4688,52.75 C635.3125,52.4844 635.0313,52.3438 634.7344,52.3438 C634.4375,52.3438 634.2344,52.4375 634.0156,52.75 L633.8438,52.6719 Z " fill="#000000"/><text fill="#000000" font-family="sans-serif" font-size="12" lengthAdjust="spacing" textLength="65" x="645.5" y="61.1543">Mozzarella</text><line style="stroke:#A80036;stroke-width:1.5;" x1="617.5" x2="712.5" y1="73" y2="73"/><line style="stroke:#A80036;stroke-width:1.5;" x1="617.5" x2="712.5" y1="81" y2="81"/><!--MD5=[ef10574f4598825f0a41e6d484a57399]
class Decorateur.Pizza.PizzaDecorator--><rect codeLine="10" fill="#FEFECE" filter="url(#f1b8l6wrrxxchs)" height="48" id="Decorateur.Pizza.PizzaDecorator" style="stroke:#A80036;stroke-width:1.5;" width="123" x="321.5" y="149"/><ellipse cx="336.5" cy="165" fill="#ADD1B2" rx="11" ry="11" style="stroke:#A80036;stroke-width:1.0;"/><path d="M338.8438,160.6719 C337.9063,160.2344 337.3125,160.0938 336.4375,160.0938 C333.8125,160.0938 331.8125,162.1719 331.8125,164.8906 L331.8125,166.0156 C331.8125,168.5938 333.9219,170.4844 336.8125,170.4844 C338.0313,170.4844 339.1875,170.1875 339.9375,169.6406 C340.5156,169.2344 340.8438,168.7813 340.8438,168.3906 C340.8438,167.9375 340.4531,167.5469 339.9844,167.5469 C339.7656,167.5469 339.5625,167.625 339.375,167.8125 C338.9219,168.2969 338.9219,168.2969 338.7344,168.3906 C338.3125,168.6563 337.625,168.7813 336.8594,168.7813 C334.8125,168.7813 333.5156,167.6875 333.5156,165.9844 L333.5156,164.8906 C333.5156,163.1094 334.7656,161.7969 336.5,161.7969 C337.0781,161.7969 337.6875,161.9531 338.1563,162.2031 C338.6406,162.4844 338.8125,162.7031 338.9063,163.1094 C338.9688,163.5156 339,163.6406 339.1406,163.7656 C339.2813,163.9063 339.5156,164.0156 339.7344,164.0156 C340,164.0156 340.2656,163.875 340.4375,163.6563 C340.5469,163.5 340.5781,163.3125 340.5781,162.8906 L340.5781,161.4688 C340.5781,161.0313 340.5625,160.9063 340.4688,160.75 C340.3125,160.4844 340.0313,160.3438 339.7344,160.3438 C339.4375,160.3438 339.2344,160.4375 339.0156,160.75 L338.8438,160.6719 Z " fill="#000000"/><text fill="#000000" font-family="sans-serif" font-size="12" lengthAdjust="spacing" textLength="91" x="350.5" y="169.1543">PizzaDecorator</text><line style="stroke:#A80036;stroke-width:1.5;" x1="322.5" x2="443.5" y1="181" y2="181"/><line style="stroke:#A80036;stroke-width:1.5;" x1="322.5" x2="443.5" y1="189" y2="189"/><!--MD5=[2b2a8443434adaa6ebdce877e09aa9e8]
class Decorateur.Pizza.PizzaTopping--><rect codeLine="11" fill="#FEFECE" filter="url(#f1b8l6wrrxxchs)" height="48" id="Decorateur.Pizza.PizzaTopping" style="stroke:#A80036;stroke-width:1.5;" width="111" x="470.5" y="41"/><ellipse cx="485.5" cy="57" fill="#ADD1B2" rx="11" ry="11" style="stroke:#A80036;stroke-width:1.0;"/><path d="M487.8438,52.6719 C486.9063,52.2344 486.3125,52.0938 485.4375,52.0938 C482.8125,52.0938 480.8125,54.1719 480.8125,56.8906 L480.8125,58.0156 C480.8125,60.5938 482.9219,62.4844 485.8125,62.4844 C487.0313,62.4844 488.1875,62.1875 488.9375,61.6406 C489.5156,61.2344 489.8438,60.7813 489.8438,60.3906 C489.8438,59.9375 489.4531,59.5469 488.9844,59.5469 C488.7656,59.5469 488.5625,59.625 488.375,59.8125 C487.9219,60.2969 487.9219,60.2969 487.7344,60.3906 C487.3125,60.6563 486.625,60.7813 485.8594,60.7813 C483.8125,60.7813 482.5156,59.6875 482.5156,57.9844 L482.5156,56.8906 C482.5156,55.1094 483.7656,53.7969 485.5,53.7969 C486.0781,53.7969 486.6875,53.9531 487.1563,54.2031 C487.6406,54.4844 487.8125,54.7031 487.9063,55.1094 C487.9688,55.5156 488,55.6406 488.1406,55.7656 C488.2813,55.9063 488.5156,56.0156 488.7344,56.0156 C489,56.0156 489.2656,55.875 489.4375,55.6563 C489.5469,55.5 489.5781,55.3125 489.5781,54.8906 L489.5781,53.4688 C489.5781,53.0313 489.5625,52.9063 489.4688,52.75 C489.3125,52.4844 489.0313,52.3438 488.7344,52.3438 C488.4375,52.3438 488.2344,52.4375 488.0156,52.75 L487.8438,52.6719 Z " fill="#000000"/><text fill="#000000" font-family="sans-serif" font-size="12" lengthAdjust="spacing" textLength="79" x="499.5" y="61.1543">PizzaTopping</text><line style="stroke:#A80036;stroke-width:1.5;" x1="471.5" x2="580.5" y1="73" y2="73"/><line style="stroke:#A80036;stroke-width:1.5;" x1="471.5" x2="580.5" y1="81" y2="81"/><!--MD5=[fbb79fcb666b69eabc6533a188dcb1dd]
class Decorateur.Pizza.PlainPizza--><rect codeLine="12" fill="#FEFECE" filter="url(#f1b8l6wrrxxchs)" height="48" id="Decorateur.Pizza.PlainPizza" style="stroke:#A80036;stroke-width:1.5;" width="88" x="658" y="149"/><ellipse cx="673" cy="165" fill="#ADD1B2" rx="11" ry="11" style="stroke:#A80036;stroke-width:1.0;"/><path d="M675.3438,160.6719 C674.4063,160.2344 673.8125,160.0938 672.9375,160.0938 C670.3125,160.0938 668.3125,162.1719 668.3125,164.8906 L668.3125,166.0156 C668.3125,168.5938 670.4219,170.4844 673.3125,170.4844 C674.5313,170.4844 675.6875,170.1875 676.4375,169.6406 C677.0156,169.2344 677.3438,168.7813 677.3438,168.3906 C677.3438,167.9375 676.9531,167.5469 676.4844,167.5469 C676.2656,167.5469 676.0625,167.625 675.875,167.8125 C675.4219,168.2969 675.4219,168.2969 675.2344,168.3906 C674.8125,168.6563 674.125,168.7813 673.3594,168.7813 C671.3125,168.7813 670.0156,167.6875 670.0156,165.9844 L670.0156,164.8906 C670.0156,163.1094 671.2656,161.7969 673,161.7969 C673.5781,161.7969 674.1875,161.9531 674.6563,162.2031 C675.1406,162.4844 675.3125,162.7031 675.4063,163.1094 C675.4688,163.5156 675.5,163.6406 675.6406,163.7656 C675.7813,163.9063 676.0156,164.0156 676.2344,164.0156 C676.5,164.0156 676.7656,163.875 676.9375,163.6563 C677.0469,163.5 677.0781,163.3125 677.0781,162.8906 L677.0781,161.4688 C677.0781,161.0313 677.0625,160.9063 676.9688,160.75 C676.8125,160.4844 676.5313,160.3438 676.2344,160.3438 C675.9375,160.3438 675.7344,160.4375 675.5156,160.75 L675.3438,160.6719 Z " fill="#000000"/><text fill="#000000" font-family="sans-serif" font-size="12" lengthAdjust="spacing" textLength="56" x="687" y="169.1543">PlainPizza</text><line style="stroke:#A80036;stroke-width:1.5;" x1="659" x2="745" y1="181" y2="181"/><line style="stroke:#A80036;stroke-width:1.5;" x1="659" x2="745" y1="189" y2="189"/><!--MD5=[05b928510dce3b98e33d61668da71caa]
class Decorateur.Pizza.ThreeCheesePizza--><rect codeLine="13" fill="#FEFECE" filter="url(#f1b8l6wrrxxchs)" height="48" id="Decorateur.Pizza.ThreeCheesePizza" style="stroke:#A80036;stroke-width:1.5;" width="143" x="479.5" y="149"/><ellipse cx="494.5" cy="165" fill="#ADD1B2" rx="11" ry="11" style="stroke:#A80036;stroke-width:1.0;"/><path d="M496.8438,160.6719 C495.9063,160.2344 495.3125,160.0938 494.4375,160.0938 C491.8125,160.0938 489.8125,162.1719 489.8125,164.8906 L489.8125,166.0156 C489.8125,168.5938 491.9219,170.4844 494.8125,170.4844 C496.0313,170.4844 497.1875,170.1875 497.9375,169.6406 C498.5156,169.2344 498.8438,168.7813 498.8438,168.3906 C498.8438,167.9375 498.4531,167.5469 497.9844,167.5469 C497.7656,167.5469 497.5625,167.625 497.375,167.8125 C496.9219,168.2969 496.9219,168.2969 496.7344,168.3906 C496.3125,168.6563 495.625,168.7813 494.8594,168.7813 C492.8125,168.7813 491.5156,167.6875 491.5156,165.9844 L491.5156,164.8906 C491.5156,163.1094 492.7656,161.7969 494.5,161.7969 C495.0781,161.7969 495.6875,161.9531 496.1563,162.2031 C496.6406,162.4844 496.8125,162.7031 496.9063,163.1094 C496.9688,163.5156 497,163.6406 497.1406,163.7656 C497.2813,163.9063 497.5156,164.0156 497.7344,164.0156 C498,164.0156 498.2656,163.875 498.4375,163.6563 C498.5469,163.5 498.5781,163.3125 498.5781,162.8906 L498.5781,161.4688 C498.5781,161.0313 498.5625,160.9063 498.4688,160.75 C498.3125,160.4844 498.0313,160.3438 497.7344,160.3438 C497.4375,160.3438 497.2344,160.4375 497.0156,160.75 L496.8438,160.6719 Z " fill="#000000"/><text fill="#000000" font-family="sans-serif" font-size="12" lengthAdjust="spacing" textLength="111" x="508.5" y="169.1543">ThreeCheesePizza</text><line style="stroke:#A80036;stroke-width:1.5;" x1="480.5" x2="621.5" y1="181" y2="181"/><line style="stroke:#A80036;stroke-width:1.5;" x1="480.5" x2="621.5" y1="189" y2="189"/><!--MD5=[bbb1f75836362aa2dec0febb5f9376e4]
class Decorateur.Pizza.TomatoSauce--><rect codeLine="14" fill="#FEFECE" filter="url(#f1b8l6wrrxxchs)" height="48" id="Decorateur.Pizza.TomatoSauce" style="stroke:#A80036;stroke-width:1.5;" width="114" x="321" y="41"/><ellipse cx="336" cy="57" fill="#ADD1B2" rx="11" ry="11" style="stroke:#A80036;stroke-width:1.0;"/><path d="M338.3438,52.6719 C337.4063,52.2344 336.8125,52.0938 335.9375,52.0938 C333.3125,52.0938 331.3125,54.1719 331.3125,56.8906 L331.3125,58.0156 C331.3125,60.5938 333.4219,62.4844 336.3125,62.4844 C337.5313,62.4844 338.6875,62.1875 339.4375,61.6406 C340.0156,61.2344 340.3438,60.7813 340.3438,60.3906 C340.3438,59.9375 339.9531,59.5469 339.4844,59.5469 C339.2656,59.5469 339.0625,59.625 338.875,59.8125 C338.4219,60.2969 338.4219,60.2969 338.2344,60.3906 C337.8125,60.6563 337.125,60.7813 336.3594,60.7813 C334.3125,60.7813 333.0156,59.6875 333.0156,57.9844 L333.0156,56.8906 C333.0156,55.1094 334.2656,53.7969 336,53.7969 C336.5781,53.7969 337.1875,53.9531 337.6563,54.2031 C338.1406,54.4844 338.3125,54.7031 338.4063,55.1094 C338.4688,55.5156 338.5,55.6406 338.6406,55.7656 C338.7813,55.9063 339.0156,56.0156 339.2344,56.0156 C339.5,56.0156 339.7656,55.875 339.9375,55.6563 C340.0469,55.5 340.0781,55.3125 340.0781,54.8906 L340.0781,53.4688 C340.0781,53.0313 340.0625,52.9063 339.9688,52.75 C339.8125,52.4844 339.5313,52.3438 339.2344,52.3438 C338.9375,52.3438 338.7344,52.4375 338.5156,52.75 L338.3438,52.6719 Z " fill="#000000"/><text fill="#000000" font-family="sans-serif" font-size="12" lengthAdjust="spacing" textLength="82" x="350" y="61.1543">TomatoSauce</text><line style="stroke:#A80036;stroke-width:1.5;" x1="322" x2="434" y1="73" y2="73"/><line style="stroke:#A80036;stroke-width:1.5;" x1="322" x2="434" y1="81" y2="81"/><!--MD5=[a14d6ca2d6b0d27d9651479c1e480dc5]
class Decorateur.Pizza.IPizza--><rect codeLine="21" fill="#FEFECE" filter="url(#f1b8l6wrrxxchs)" height="48" id="Decorateur.Pizza.IPizza" style="stroke:#A80036;stroke-width:1.5;" width="65" x="593.5" y="257"/><ellipse cx="608.5" cy="273" fill="#B4A7E5" rx="11" ry="11" style="stroke:#A80036;stroke-width:1.0;"/><path d="M609.4531,269.7813 L611.1719,269.7813 C611.5625,269.7813 611.75,269.75 611.875,269.6719 C612.1406,269.5156 612.2813,269.2344 612.2813,268.9375 C612.2813,268.6719 612.1719,268.4063 611.9375,268.2344 C611.7656,268.125 611.625,268.0938 611.1719,268.0938 L606.0313,268.0938 C605.5938,268.0938 605.4688,268.1094 605.3125,268.2031 C605.0625,268.3594 604.9063,268.6563 604.9063,268.9375 C604.9063,269.2188 605.0469,269.4688 605.2656,269.6406 C605.4219,269.75 605.6094,269.7813 606.0313,269.7813 L607.75,269.7813 L607.75,276.2969 L606.0313,276.2969 C605.5938,276.2969 605.4688,276.3125 605.3125,276.4219 C605.0625,276.5781 604.9063,276.8594 604.9063,277.1563 C604.9063,277.4063 605.0469,277.6719 605.2656,277.8281 C605.4219,277.9531 605.625,278 606.0313,278 L611.1719,278 C611.9219,278 612.2813,277.7188 612.2813,277.1563 C612.2813,276.875 612.1719,276.625 611.9375,276.4531 C611.7656,276.3281 611.625,276.2969 611.1719,276.2969 L609.4531,276.2969 L609.4531,269.7813 Z " fill="#000000"/><text fill="#000000" font-family="sans-serif" font-size="12" font-style="italic" lengthAdjust="spacing" textLength="33" x="622.5" y="277.1543">IPizza</text><line style="stroke:#A80036;stroke-width:1.5;" x1="594.5" x2="657.5" y1="289" y2="289"/><line style="stroke:#A80036;stroke-width:1.5;" x1="594.5" x2="657.5" y1="297" y2="297"/><!--MD5=[99bc70ab931fe402592ca8132743d59b]
class Decorateur.Repas.Repas--><rect codeLine="15" fill="#FEFECE" filter="url(#f1b8l6wrrxxchs)" height="48" id="Decorateur.Repas.Repas" style="stroke:#A80036;stroke-width:1.5;" width="69" x="711.5" y="488"/><ellipse cx="726.5" cy="504" fill="#ADD1B2" rx="11" ry="11" style="stroke:#A80036;stroke-width:1.0;"/><path d="M728.8438,499.6719 C727.9063,499.2344 727.3125,499.0938 726.4375,499.0938 C723.8125,499.0938 721.8125,501.1719 721.8125,503.8906 L721.8125,505.0156 C721.8125,507.5938 723.9219,509.4844 726.8125,509.4844 C728.0313,509.4844 729.1875,509.1875 729.9375,508.6406 C730.5156,508.2344 730.8438,507.7813 730.8438,507.3906 C730.8438,506.9375 730.4531,506.5469 729.9844,506.5469 C729.7656,506.5469 729.5625,506.625 729.375,506.8125 C728.9219,507.2969 728.9219,507.2969 728.7344,507.3906 C728.3125,507.6563 727.625,507.7813 726.8594,507.7813 C724.8125,507.7813 723.5156,506.6875 723.5156,504.9844 L723.5156,503.8906 C723.5156,502.1094 724.7656,500.7969 726.5,500.7969 C727.0781,500.7969 727.6875,500.9531 728.1563,501.2031 C728.6406,501.4844 728.8125,501.7031 728.9063,502.1094 C728.9688,502.5156 729,502.6406 729.1406,502.7656 C729.2813,502.9063 729.5156,503.0156 729.7344,503.0156 C730,503.0156 730.2656,502.875 730.4375,502.6563 C730.5469,502.5 730.5781,502.3125 730.5781,501.8906 L730.5781,500.4688 C730.5781,500.0313 730.5625,499.9063 730.4688,499.75 C730.3125,499.4844 730.0313,499.3438 729.7344,499.3438 C729.4375,499.3438 729.2344,499.4375 729.0156,499.75 L728.8438,499.6719 Z " fill="#000000"/><text fill="#000000" font-family="sans-serif" font-size="12" lengthAdjust="spacing" textLength="37" x="740.5" y="508.1543">Repas</text><line style="stroke:#A80036;stroke-width:1.5;" x1="712.5" x2="779.5" y1="520" y2="520"/><line style="stroke:#A80036;stroke-width:1.5;" x1="712.5" x2="779.5" y1="528" y2="528"/><!--MD5=[03d7ecbb3f6518717a10ccb241ee3f20]
class Decorateur.Repas.IRepas--><rect codeLine="22" fill="#FEFECE" filter="url(#f1b8l6wrrxxchs)" height="48" id="Decorateur.Repas.IRepas" style="stroke:#A80036;stroke-width:1.5;" width="72" x="710" y="380"/><ellipse cx="725" cy="396" fill="#B4A7E5" rx="11" ry="11" style="stroke:#A80036;stroke-width:1.0;"/><path d="M725.9531,392.7813 L727.6719,392.7813 C728.0625,392.7813 728.25,392.75 728.375,392.6719 C728.6406,392.5156 728.7813,392.2344 728.7813,391.9375 C728.7813,391.6719 728.6719,391.4063 728.4375,391.2344 C728.2656,391.125 728.125,391.0938 727.6719,391.0938 L722.5313,391.0938 C722.0938,391.0938 721.9688,391.1094 721.8125,391.2031 C721.5625,391.3594 721.4063,391.6563 721.4063,391.9375 C721.4063,392.2188 721.5469,392.4688 721.7656,392.6406 C721.9219,392.75 722.1094,392.7813 722.5313,392.7813 L724.25,392.7813 L724.25,399.2969 L722.5313,399.2969 C722.0938,399.2969 721.9688,399.3125 721.8125,399.4219 C721.5625,399.5781 721.4063,399.8594 721.4063,400.1563 C721.4063,400.4063 721.5469,400.6719 721.7656,400.8281 C721.9219,400.9531 722.125,401 722.5313,401 L727.6719,401 C728.4219,401 728.7813,400.7188 728.7813,400.1563 C728.7813,399.875 728.6719,399.625 728.4375,399.4531 C728.2656,399.3281 728.125,399.2969 727.6719,399.2969 L725.9531,399.2969 L725.9531,392.7813 Z " fill="#000000"/><text fill="#000000" font-family="sans-serif" font-size="12" font-style="italic" lengthAdjust="spacing" textLength="40" x="739" y="400.1543">IRepas</text><line style="stroke:#A80036;stroke-width:1.5;" x1="711" x2="781" y1="412" y2="412"/><line style="stroke:#A80036;stroke-width:1.5;" x1="711" x2="781" y1="420" y2="420"/><!--MD5=[8479184e23c2bec09445fccfd361f5d2]
class java.util.ArrayList--><rect codeLine="16" fill="#FEFECE" filter="url(#f1b8l6wrrxxchs)" height="48" id="java.util.ArrayList" style="stroke:#A80036;stroke-width:1.5;" width="84" x="819" y="611"/><ellipse cx="834" cy="627" fill="#ADD1B2" rx="11" ry="11" style="stroke:#A80036;stroke-width:1.0;"/><path d="M836.3438,622.6719 C835.4063,622.2344 834.8125,622.0938 833.9375,622.0938 C831.3125,622.0938 829.3125,624.1719 829.3125,626.8906 L829.3125,628.0156 C829.3125,630.5938 831.4219,632.4844 834.3125,632.4844 C835.5313,632.4844 836.6875,632.1875 837.4375,631.6406 C838.0156,631.2344 838.3438,630.7813 838.3438,630.3906 C838.3438,629.9375 837.9531,629.5469 837.4844,629.5469 C837.2656,629.5469 837.0625,629.625 836.875,629.8125 C836.4219,630.2969 836.4219,630.2969 836.2344,630.3906 C835.8125,630.6563 835.125,630.7813 834.3594,630.7813 C832.3125,630.7813 831.0156,629.6875 831.0156,627.9844 L831.0156,626.8906 C831.0156,625.1094 832.2656,623.7969 834,623.7969 C834.5781,623.7969 835.1875,623.9531 835.6563,624.2031 C836.1406,624.4844 836.3125,624.7031 836.4063,625.1094 C836.4688,625.5156 836.5,625.6406 836.6406,625.7656 C836.7813,625.9063 837.0156,626.0156 837.2344,626.0156 C837.5,626.0156 837.7656,625.875 837.9375,625.6563 C838.0469,625.5 838.0781,625.3125 838.0781,624.8906 L838.0781,623.4688 C838.0781,623.0313 838.0625,622.9063 837.9688,622.75 C837.8125,622.4844 837.5313,622.3438 837.2344,622.3438 C836.9375,622.3438 836.7344,622.4375 836.5156,622.75 L836.3438,622.6719 Z " fill="#000000"/><text fill="#000000" font-family="sans-serif" font-size="12" lengthAdjust="spacing" textLength="52" x="848" y="631.1543">ArrayList</text><line style="stroke:#A80036;stroke-width:1.5;" x1="820" x2="902" y1="643" y2="643"/><line style="stroke:#A80036;stroke-width:1.5;" x1="820" x2="902" y1="651" y2="651"/><!--MD5=[af67028c7c879a354eef1ccc049398d0]
class java.util.Iterator--><rect codeLine="17" fill="#FEFECE" filter="url(#f1b8l6wrrxxchs)" height="48" id="java.util.Iterator" style="stroke:#A80036;stroke-width:1.5;" width="76" x="708" y="611"/><ellipse cx="723" cy="627" fill="#ADD1B2" rx="11" ry="11" style="stroke:#A80036;stroke-width:1.0;"/><path d="M725.3438,622.6719 C724.4063,622.2344 723.8125,622.0938 722.9375,622.0938 C720.3125,622.0938 718.3125,624.1719 718.3125,626.8906 L718.3125,628.0156 C718.3125,630.5938 720.4219,632.4844 723.3125,632.4844 C724.5313,632.4844 725.6875,632.1875 726.4375,631.6406 C727.0156,631.2344 727.3438,630.7813 727.3438,630.3906 C727.3438,629.9375 726.9531,629.5469 726.4844,629.5469 C726.2656,629.5469 726.0625,629.625 725.875,629.8125 C725.4219,630.2969 725.4219,630.2969 725.2344,630.3906 C724.8125,630.6563 724.125,630.7813 723.3594,630.7813 C721.3125,630.7813 720.0156,629.6875 720.0156,627.9844 L720.0156,626.8906 C720.0156,625.1094 721.2656,623.7969 723,623.7969 C723.5781,623.7969 724.1875,623.9531 724.6563,624.2031 C725.1406,624.4844 725.3125,624.7031 725.4063,625.1094 C725.4688,625.5156 725.5,625.6406 725.6406,625.7656 C725.7813,625.9063 726.0156,626.0156 726.2344,626.0156 C726.5,626.0156 726.7656,625.875 726.9375,625.6563 C727.0469,625.5 727.0781,625.3125 727.0781,624.8906 L727.0781,623.4688 C727.0781,623.0313 727.0625,622.9063 726.9688,622.75 C726.8125,622.4844 726.5313,622.3438 726.2344,622.3438 C725.9375,622.3438 725.7344,622.4375 725.5156,622.75 L725.3438,622.6719 Z " fill="#000000"/><text fill="#000000" font-family="sans-serif" font-size="12" lengthAdjust="spacing" textLength="44" x="737" y="631.1543">Iterator</text><line style="stroke:#A80036;stroke-width:1.5;" x1="709" x2="783" y1="643" y2="643"/><line style="stroke:#A80036;stroke-width:1.5;" x1="709" x2="783" y1="651" y2="651"/><!--MD5=[6b7a9fc05e2cf62df8c1411c2048df3f]
class java.util.List--><rect codeLine="18" fill="#FEFECE" filter="url(#f1b8l6wrrxxchs)" height="48" id="java.util.List" style="stroke:#A80036;stroke-width:1.5;" width="52" x="621" y="611"/><ellipse cx="636" cy="627" fill="#ADD1B2" rx="11" ry="11" style="stroke:#A80036;stroke-width:1.0;"/><path d="M638.3438,622.6719 C637.4063,622.2344 636.8125,622.0938 635.9375,622.0938 C633.3125,622.0938 631.3125,624.1719 631.3125,626.8906 L631.3125,628.0156 C631.3125,630.5938 633.4219,632.4844 636.3125,632.4844 C637.5313,632.4844 638.6875,632.1875 639.4375,631.6406 C640.0156,631.2344 640.3438,630.7813 640.3438,630.3906 C640.3438,629.9375 639.9531,629.5469 639.4844,629.5469 C639.2656,629.5469 639.0625,629.625 638.875,629.8125 C638.4219,630.2969 638.4219,630.2969 638.2344,630.3906 C637.8125,630.6563 637.125,630.7813 636.3594,630.7813 C634.3125,630.7813 633.0156,629.6875 633.0156,627.9844 L633.0156,626.8906 C633.0156,625.1094 634.2656,623.7969 636,623.7969 C636.5781,623.7969 637.1875,623.9531 637.6563,624.2031 C638.1406,624.4844 638.3125,624.7031 638.4063,625.1094 C638.4688,625.5156 638.5,625.6406 638.6406,625.7656 C638.7813,625.9063 639.0156,626.0156 639.2344,626.0156 C639.5,626.0156 639.7656,625.875 639.9375,625.6563 C640.0469,625.5 640.0781,625.3125 640.0781,624.8906 L640.0781,623.4688 C640.0781,623.0313 640.0625,622.9063 639.9688,622.75 C639.8125,622.4844 639.5313,622.3438 639.2344,622.3438 C638.9375,622.3438 638.7344,622.4375 638.5156,622.75 L638.3438,622.6719 Z " fill="#000000"/><text fill="#000000" font-family="sans-serif" font-size="12" lengthAdjust="spacing" textLength="20" x="650" y="631.1543">List</text><line style="stroke:#A80036;stroke-width:1.5;" x1="622" x2="672" y1="643" y2="643"/><line style="stroke:#A80036;stroke-width:1.5;" x1="622" x2="672" y1="651" y2="651"/><!--MD5=[9e4c182a398f9a1a6b9e1c85fdde2643]
link Decorateur.Coffee.CoffeeDecorator to Decorateur.Coffee.ICoffee--><path codeLine="23" d="M866,197 C866,208.588 866,223.029 866,236.601 " fill="none" id="Decorateur.Coffee.CoffeeDecorator-to-Decorateur.Coffee.ICoffee" style="stroke:#A80036;stroke-width:1.0;"/><polygon fill="none" points="873,236.678,866,256.678,859,236.678,873,236.678" style="stroke:#A80036;stroke-width:1.0;"/><!--MD5=[aa46e3b9aba74649caf8f26527977ddf]
link Decorateur.Coffee.SimpleCoffee to Decorateur.Coffee.ICoffee--><path codeLine="24" d="M988.15,197 C967.269,211.189 940.092,229.656 916.676,245.566 " fill="none" id="Decorateur.Coffee.SimpleCoffee-to-Decorateur.Coffee.ICoffee" style="stroke:#A80036;stroke-width:1.0;"/><polygon fill="none" points="920.529,251.411,900.053,256.862,912.661,239.831,920.529,251.411" style="stroke:#A80036;stroke-width:1.0;"/><!--MD5=[63c6aa2341be6739ac0fa7c337596958]
link Decorateur.Coffee.SimpleCoffee to Decorateur.Repas.IRepas--><path codeLine="25" d="M1012.14,197.048 C996.86,230.311 964.519,291.848 920,329 C885.524,357.771 838.211,376.924 801.623,388.522 " fill="none" id="Decorateur.Coffee.SimpleCoffee-to-Decorateur.Repas.IRepas" style="stroke:#A80036;stroke-width:1.0;"/><polygon fill="none" points="803.454,395.281,782.288,394.275,799.462,381.862,803.454,395.281" style="stroke:#A80036;stroke-width:1.0;"/><!--MD5=[97fad5f8af46f18bafc1204ff7cf7a1a]
link Decorateur.Coffee.WithMilk to Decorateur.Coffee.CoffeeDecorator--><path codeLine="26" d="M967.009,89 C950.388,102.658 928.945,120.278 910.094,135.768 " fill="none" id="Decorateur.Coffee.WithMilk-to-Decorateur.Coffee.CoffeeDecorator" style="stroke:#A80036;stroke-width:1.0;"/><polygon fill="none" points="914.278,141.389,894.382,148.678,905.39,130.573,914.278,141.389" style="stroke:#A80036;stroke-width:1.0;"/><!--MD5=[582586eaa33893b82b20ee610ff8f5d9]
link Decorateur.Coffee.WithSprinkles to Decorateur.Coffee.CoffeeDecorator--><path codeLine="27" d="M862.868,89 C863.305,100.588 863.85,115.029 864.362,128.601 " fill="none" id="Decorateur.Coffee.WithSprinkles-to-Decorateur.Coffee.CoffeeDecorator" style="stroke:#A80036;stroke-width:1.0;"/><polygon fill="none" points="871.361,128.429,865.12,148.678,857.371,128.957,871.361,128.429" style="stroke:#A80036;stroke-width:1.0;"/><!--MD5=[e903ea49143e6aaa569aaa47c103fdae]
link Decorateur.Patate.Fromage to Decorateur.Patate.PatateDecorator--><path codeLine="28" d="M173.735,89 C161.619,102.106 146.129,118.86 132.243,133.88 " fill="none" id="Decorateur.Patate.Fromage-to-Decorateur.Patate.PatateDecorator" style="stroke:#A80036;stroke-width:1.0;"/><polygon fill="none" points="137.279,138.745,118.561,148.678,126.999,129.241,137.279,138.745" style="stroke:#A80036;stroke-width:1.0;"/><!--MD5=[004941efb1fdc393f3fb180c772ce48e]
link Decorateur.Patate.Patate to Decorateur.Patate.IPatate--><path codeLine="29" d="M230.349,197 C230.021,208.588 229.612,223.029 229.228,236.601 " fill="none" id="Decorateur.Patate.Patate-to-Decorateur.Patate.IPatate" style="stroke:#A80036;stroke-width:1.0;"/><polygon fill="none" points="236.223,236.884,228.66,256.678,222.229,236.488,236.223,236.884" style="stroke:#A80036;stroke-width:1.0;"/><!--MD5=[22860a09d79d1ac993027a67964f4412]
link Decorateur.Patate.PatateDecorator to Decorateur.Patate.IPatate--><path codeLine="30" d="M125.425,197 C142.389,210.727 164.299,228.456 183.512,244.002 " fill="none" id="Decorateur.Patate.PatateDecorator-to-Decorateur.Patate.IPatate" style="stroke:#A80036;stroke-width:1.0;"/><polygon fill="none" points="188.034,238.656,199.178,256.678,179.227,249.54,188.034,238.656" style="stroke:#A80036;stroke-width:1.0;"/><!--MD5=[78cde6a7898b572a6a6d829f128c9822]
link Decorateur.Patate.Sauce to Decorateur.Patate.PatateDecorator--><path codeLine="31" d="M85.2548,89 C86.8946,100.588 88.9381,115.029 90.8587,128.601 " fill="none" id="Decorateur.Patate.Sauce-to-Decorateur.Patate.PatateDecorator" style="stroke:#A80036;stroke-width:1.0;"/><polygon fill="none" points="97.8284,127.895,93.6998,148.678,83.9665,129.857,97.8284,127.895" style="stroke:#A80036;stroke-width:1.0;"/><!--MD5=[3788f200575cf4a3b0631b7d601f803b]
link Decorateur.Pizza.Mozzarella to Decorateur.Pizza.PizzaDecorator--><path codeLine="32" d="M616.201,84.343 C574.103,100.167 512.478,123.331 463.149,141.873 " fill="none" id="Decorateur.Pizza.Mozzarella-to-Decorateur.Pizza.PizzaDecorator" style="stroke:#A80036;stroke-width:1.0;"/><polygon fill="none" points="465.413,148.5,444.229,148.985,460.487,135.395,465.413,148.5" style="stroke:#A80036;stroke-width:1.0;"/><!--MD5=[f9ec0c1c0a8bcf7e9d39f20eb10441e4]
link Decorateur.Pizza.PizzaDecorator to Decorateur.Pizza.IPizza--><path codeLine="33" d="M435.727,197 C477.086,215.042 534.298,239.998 575.164,257.824 " fill="none" id="Decorateur.Pizza.PizzaDecorator-to-Decorateur.Pizza.IPizza" style="stroke:#A80036;stroke-width:1.0;"/><polygon fill="none" points="577.963,251.408,593.496,265.821,572.365,264.241,577.963,251.408" style="stroke:#A80036;stroke-width:1.0;"/><!--MD5=[cbcb9529cb2c456730ccefd7e7f3d978]
link Decorateur.Pizza.PizzaTopping to Decorateur.Pizza.PizzaDecorator--><path codeLine="34" d="M494.971,89 C476.174,102.934 451.813,120.991 430.617,136.704 " fill="none" id="Decorateur.Pizza.PizzaTopping-to-Decorateur.Pizza.PizzaDecorator" style="stroke:#A80036;stroke-width:1.0;"/><polygon fill="none" points="434.698,142.392,414.462,148.678,426.361,131.145,434.698,142.392" style="stroke:#A80036;stroke-width:1.0;"/><!--MD5=[55d6b94b991fb1839f2900535285787b]
link Decorateur.Pizza.PlainPizza to Decorateur.Pizza.IPizza--><path codeLine="35" d="M685.509,197 C676.508,209.554 665.107,225.456 654.698,239.974 " fill="none" id="Decorateur.Pizza.PlainPizza-to-Decorateur.Pizza.IPizza" style="stroke:#A80036;stroke-width:1.0;"/><polygon fill="none" points="660.064,244.503,642.721,256.678,648.686,236.346,660.064,244.503" style="stroke:#A80036;stroke-width:1.0;"/><!--MD5=[4f77ea18172b36ab95be401157c0cccb]
link Decorateur.Pizza.ThreeCheesePizza to Decorateur.Pizza.IPizza--><path codeLine="36" d="M567.274,197 C576.156,209.554 587.408,225.456 597.68,239.974 " fill="none" id="Decorateur.Pizza.ThreeCheesePizza-to-Decorateur.Pizza.IPizza" style="stroke:#A80036;stroke-width:1.0;"/><polygon fill="none" points="603.661,236.309,609.499,256.678,592.233,244.395,603.661,236.309" style="stroke:#A80036;stroke-width:1.0;"/><!--MD5=[9ee2945d5f002990f6a9ccf39fd63e3a]
link Decorateur.Pizza.TomatoSauce to Decorateur.Pizza.PizzaDecorator--><path codeLine="37" d="M379.085,89 C379.632,100.588 380.313,115.029 380.953,128.601 " fill="none" id="Decorateur.Pizza.TomatoSauce-to-Decorateur.Pizza.PizzaDecorator" style="stroke:#A80036;stroke-width:1.0;"/><polygon fill="none" points="387.95,128.371,381.9,148.678,373.965,129.03,387.95,128.371" style="stroke:#A80036;stroke-width:1.0;"/><!--MD5=[d67163dfe7912d77497e4fb1ac04b8a4]
link Decorateur.Repas.Repas to java.util.ArrayList--><path codeLine="38" d="M769.531,536.041 C779.364,545.795 790.843,557.347 801,568 C813.001,580.586 826.02,594.8313 836.853,606.8574 " fill="none" id="Decorateur.Repas.Repas-to-java.util.ArrayList" style="stroke:#A80036;stroke-width:1.0;stroke-dasharray:7.0,7.0;"/><polygon fill="#A80036" points="840.439,610.8452,837.3947,601.4787,837.0954,607.1276,831.4465,606.8284,840.439,610.8452" style="stroke:#A80036;stroke-width:1.0;"/><!--MD5=[666ce127641bcd8a1426b299a53ff7bc]
link Decorateur.Repas.Repas to java.util.Iterator--><path codeLine="39" d="M746,536.044 C746,555.766 746,584.243 746,605.4143 " fill="none" id="Decorateur.Repas.Repas-to-java.util.Iterator" style="stroke:#A80036;stroke-width:1.0;stroke-dasharray:7.0,7.0;"/><polygon fill="#A80036" points="746,610.6297,750,601.6297,746,605.6297,742,601.6297,746,610.6297" style="stroke:#A80036;stroke-width:1.0;"/><!--MD5=[72fcb3decaaa3863dc3ee85442c722c0]
link Decorateur.Repas.Repas to java.util.List--><path codeLine="40" d="M720.276,536.007 C710.323,545.471 699.149,556.822 690,568 C680.202,579.97 670.668,594.2468 663.078,606.4553 " fill="none" id="Decorateur.Repas.Repas-to-java.util.List" style="stroke:#A80036;stroke-width:1.0;stroke-dasharray:7.0,7.0;"/><polygon fill="#A80036" points="660.372,610.8514,668.4956,605.2829,662.9925,606.5931,661.6823,601.0901,660.372,610.8514" style="stroke:#A80036;stroke-width:1.0;"/><!--MD5=[35bdddd61262c7adb39f63a4d2760cde]
link Decorateur.Coffee.ICoffee to Decorateur.Repas.IRepas--><path codeLine="41" d="M843.146,305.044 C826.322,322.008 803.074,345.45 783.539,365.148 " fill="none" id="Decorateur.Coffee.ICoffee-to-Decorateur.Repas.IRepas" style="stroke:#A80036;stroke-width:1.0;"/><polygon fill="none" points="788.231,370.358,769.177,379.63,778.29,360.5,788.231,370.358" style="stroke:#A80036;stroke-width:1.0;"/><!--MD5=[9649b40bd6edca539f8a880fc301285b]
link Decorateur.Patate.IPatate to Decorateur.Repas.IRepas--><path codeLine="42" d="M259.56,305.034 C272.972,313.798 289.153,323.087 305,329 C437.287,378.362 604.201,394.936 689.767,400.396 " fill="none" id="Decorateur.Patate.IPatate-to-Decorateur.Repas.IRepas" style="stroke:#A80036;stroke-width:1.0;"/><polygon fill="none" points="690.383,393.42,709.943,401.57,689.57,407.396,690.383,393.42" style="stroke:#A80036;stroke-width:1.0;"/><!--MD5=[487a28a5885e956d7ab333fc6828d750]
link Decorateur.Pizza.IPizza to Decorateur.Repas.IRepas--><path codeLine="43" d="M648.854,305.044 C665.678,322.008 688.926,345.45 708.461,365.148 " fill="none" id="Decorateur.Pizza.IPizza-to-Decorateur.Repas.IRepas" style="stroke:#A80036;stroke-width:1.0;"/><polygon fill="none" points="713.71,360.5,722.823,379.63,703.769,370.358,713.71,360.5" style="stroke:#A80036;stroke-width:1.0;"/><!--MD5=[859ba7e3c6d82f7155787da3b7672c39]
reverse link Decorateur.Repas.IRepas to Decorateur.Repas.Repas--><path codeLine="45" d="M746,433.131 C746,450.154 746,471.604 746,487.678 " fill="none" id="Decorateur.Repas.IRepas-backto-Decorateur.Repas.Repas" style="stroke:#A80036;stroke-width:1.0;"/><polygon fill="#A80036" points="746,428,742,437,746,433,750,437,746,428" style="stroke:#A80036;stroke-width:1.0;"/><text fill="#000000" font-family="sans-serif" font-size="13" lengthAdjust="spacing" textLength="7" x="738.1031" y="448.1558">*</text><!--MD5=[75d9895afb8c1a002dfd5dcfca668223]
@startuml
abstract class Decorateur.Coffee.CoffeeDecorator
class Decorateur.Coffee.SimpleCoffee
class Decorateur.Coffee.WithMilk
class Decorateur.Coffee.WithSprinkles
class Decorateur.Patate.Fromage
class Decorateur.Patate.Patate
class Decorateur.Patate.PatateDecorator
class Decorateur.Patate.Sauce
class Decorateur.Pizza.Mozzarella
class Decorateur.Pizza.PizzaDecorator
class Decorateur.Pizza.PizzaTopping
class Decorateur.Pizza.PlainPizza
class Decorateur.Pizza.ThreeCheesePizza
class Decorateur.Pizza.TomatoSauce
class Decorateur.Repas.Repas
class java.util.ArrayList
class java.util.Iterator
class java.util.List
interface Decorateur.Coffee.ICoffee
interface Decorateur.Patate.IPatate
interface Decorateur.Pizza.IPizza
interface Decorateur.Repas.IRepas
Decorateur.Coffee.CoffeeDecorator - -|> Decorateur.Coffee.ICoffee
Decorateur.Coffee.SimpleCoffee - -|> Decorateur.Coffee.ICoffee
Decorateur.Coffee.SimpleCoffee - -|> Decorateur.Repas.IRepas
Decorateur.Coffee.WithMilk - -|> Decorateur.Coffee.CoffeeDecorator
Decorateur.Coffee.WithSprinkles - -|> Decorateur.Coffee.CoffeeDecorator
Decorateur.Patate.Fromage - -|> Decorateur.Patate.PatateDecorator
Decorateur.Patate.Patate - -|> Decorateur.Patate.IPatate
Decorateur.Patate.PatateDecorator - -|> Decorateur.Patate.IPatate
Decorateur.Patate.Sauce - -|> Decorateur.Patate.PatateDecorator
Decorateur.Pizza.Mozzarella - -|> Decorateur.Pizza.PizzaDecorator
Decorateur.Pizza.PizzaDecorator - -|> Decorateur.Pizza.IPizza
Decorateur.Pizza.PizzaTopping - -|> Decorateur.Pizza.PizzaDecorator
Decorateur.Pizza.PlainPizza - -|> Decorateur.Pizza.IPizza
Decorateur.Pizza.ThreeCheesePizza - -|> Decorateur.Pizza.IPizza
Decorateur.Pizza.TomatoSauce - -|> Decorateur.Pizza.PizzaDecorator
Decorateur.Repas.Repas ..> java.util.ArrayList
Decorateur.Repas.Repas ..> java.util.Iterator
Decorateur.Repas.Repas ..> java.util.List
Decorateur.Coffee.ICoffee - -|> Decorateur.Repas.IRepas
Decorateur.Patate.IPatate - -|> Decorateur.Repas.IRepas
Decorateur.Pizza.IPizza - -|> Decorateur.Repas.IRepas

Decorateur.Repas.Repas -u-> "*" Decorateur.Repas.IRepas
@enduml

PlantUML version 1.2021.01beta7(Unknown compile time)
(GPL source distribution)
Java Runtime: Java(TM) SE Runtime Environment
JVM: Java HotSpot(TM) 64-Bit Server VM
Default Encoding: UTF-8
Language: en
Country: US
--></g></svg>