<?xml version="1.0" encoding="UTF-8" standalone="no"?><svg xmlns="http://www.w3.org/2000/svg" xmlns:xlink="http://www.w3.org/1999/xlink" contentScriptType="application/ecmascript" contentStyleType="text/css" height="346px" preserveAspectRatio="none" style="width:422px;height:346px;" version="1.1" viewBox="0 0 422 346" width="422px" zoomAndPan="magnify"><defs/><g><text fill="#000000" font-family="sans-serif" font-size="18" lengthAdjust="spacing" textLength="91" x="159.25" y="16.708">DCL-pizza</text><!--MD5=[5c5a2dd8ed299478ae091ad6bda6d6bd]
class Pizza--><rect codeLine="3" fill="#FEFECE" height="79.5469" id="Pizza" style="stroke:#A80036;stroke-width:1.5;" width="143" x="142" y="27.9531"/><text fill="#000000" font-family="sans-serif" font-size="12" font-style="italic" lengthAdjust="spacing" textLength="67" x="180" y="44.0918">«interface»</text><text fill="#000000" font-family="sans-serif" font-size="12" font-style="italic" lengthAdjust="spacing" textLength="29" x="199" y="58.0605">Pizza</text><line style="stroke:#A80036;stroke-width:1.5;" x1="143" x2="284" y1="65.8906" y2="65.8906"/><line style="stroke:#A80036;stroke-width:1.5;" x1="143" x2="284" y1="73.8906" y2="73.8906"/><text fill="#000000" font-family="sans-serif" font-size="11" lengthAdjust="spacing" textLength="98" x="148" y="88.1011">getCost(): double</text><text fill="#000000" font-family="sans-serif" font-size="11" lengthAdjust="spacing" textLength="131" x="148" y="100.9058">getDescription(): String</text><!--MD5=[d3bd83d48ca6e8e1ba61f369562ec053]
class ThreeCheesePizza--><rect codeLine="7" fill="#FEFECE" height="39.9688" id="ThreeCheesePizza" style="stroke:#A80036;stroke-width:1.5;" width="117" x="7" y="191.9531"/><text fill="#000000" font-family="sans-serif" font-size="12" lengthAdjust="spacing" textLength="111" x="10" y="208.0918">ThreeCheesePizza</text><line style="stroke:#A80036;stroke-width:1.5;" x1="8" x2="123" y1="215.9219" y2="215.9219"/><line style="stroke:#A80036;stroke-width:1.5;" x1="8" x2="123" y1="223.9219" y2="223.9219"/><!--MD5=[de061450c05fe7c1ebdd0f205fc81a03]
class PlainPizza--><rect codeLine="8" fill="#FEFECE" height="39.9688" id="PlainPizza" style="stroke:#A80036;stroke-width:1.5;" width="62" x="159.5" y="191.9531"/><text fill="#000000" font-family="sans-serif" font-size="12" lengthAdjust="spacing" textLength="56" x="162.5" y="208.0918">PlainPizza</text><line style="stroke:#A80036;stroke-width:1.5;" x1="160.5" x2="220.5" y1="215.9219" y2="215.9219"/><line style="stroke:#A80036;stroke-width:1.5;" x1="160.5" x2="220.5" y1="223.9219" y2="223.9219"/><!--MD5=[56892c6b98c89144d3bd5a37e0c1daeb]
class ToppingDecorator--><rect codeLine="9" fill="#FEFECE" height="53.9375" id="ToppingDecorator" style="stroke:#A80036;stroke-width:1.5;" width="116" x="256.5" y="184.9531"/><text fill="#000000" font-family="sans-serif" font-size="12" font-style="italic" lengthAdjust="spacing" textLength="64" x="282.5" y="201.0918">«abstract»</text><text fill="#000000" font-family="sans-serif" font-size="12" lengthAdjust="spacing" textLength="110" x="259.5" y="215.0605">ToppingDecorator</text><line style="stroke:#A80036;stroke-width:1.5;" x1="257.5" x2="371.5" y1="222.8906" y2="222.8906"/><line style="stroke:#A80036;stroke-width:1.5;" x1="257.5" x2="371.5" y1="230.8906" y2="230.8906"/><!--MD5=[36782469b8da81fecadd2b537eec190f]
class Mozzarella--><rect codeLine="10" fill="#FEFECE" height="39.9688" id="Mozzarella" style="stroke:#A80036;stroke-width:1.5;" width="71" x="221" y="299.9531"/><text fill="#000000" font-family="sans-serif" font-size="12" lengthAdjust="spacing" textLength="65" x="224" y="316.0918">Mozzarella</text><line style="stroke:#A80036;stroke-width:1.5;" x1="222" x2="291" y1="323.9219" y2="323.9219"/><line style="stroke:#A80036;stroke-width:1.5;" x1="222" x2="291" y1="331.9219" y2="331.9219"/><!--MD5=[3809974f04b7b1340eb9246255139bc7]
class TomatoSauce--><rect codeLine="11" fill="#FEFECE" height="39.9688" id="TomatoSauce" style="stroke:#A80036;stroke-width:1.5;" width="88" x="327.5" y="299.9531"/><text fill="#000000" font-family="sans-serif" font-size="12" lengthAdjust="spacing" textLength="82" x="330.5" y="316.0918">TomatoSauce</text><line style="stroke:#A80036;stroke-width:1.5;" x1="328.5" x2="414.5" y1="323.9219" y2="323.9219"/><line style="stroke:#A80036;stroke-width:1.5;" x1="328.5" x2="414.5" y1="331.9219" y2="331.9219"/><!--MD5=[6a28bcfd32d67bbbb986cd7cdac9f5ea]
reverse link Pizza to ThreeCheesePizza--><path d="M158.121,122.0871 C132.629,146.5451 103.9838,174.0291 85.3903,191.8691 " fill="none" id="Pizza-backto-ThreeCheesePizza" style="stroke:#A80036;stroke-width:1.0;"/><polygon fill="none" points="153.389,116.9271,172.667,108.1311,163.081,127.0291,153.389,116.9271" style="stroke:#A80036;stroke-width:1.0;"/><!--MD5=[202162bb645f8d1c7de1ac319452f92f]
reverse link Pizza to PlainPizza--><path d="M203.941,127.9661 C200.235,150.8511 196.251,175.4471 193.591,191.8691 " fill="none" id="Pizza-backto-PlainPizza" style="stroke:#A80036;stroke-width:1.0;stroke-dasharray:7.0,7.0;"/><polygon fill="none" points="197.046,126.7541,207.154,108.1311,210.866,128.9931,197.046,126.7541" style="stroke:#A80036;stroke-width:1.0;"/><!--MD5=[f648339110e0417e09204db774dbbc44]
reverse link Pizza to ToppingDecorator--><path d="M244.768,125.2741 C250.973,135.3791 257.686,145.6471 264.5,154.9531 C271.969,165.1531 280.957,175.6631 289.24,184.7841 " fill="none" id="Pizza-backto-ToppingDecorator" style="stroke:#A80036;stroke-width:1.0;stroke-dasharray:7.0,7.0;"/><polygon fill="none" points="238.746,128.8421,234.56,108.0701,250.786,121.6971,238.746,128.8421" style="stroke:#A80036;stroke-width:1.0;"/><!--MD5=[c73d5662bce71abcacb1844ed9ebe464]
link ToppingDecorator to Pizza--><path codeLine="12" d="M299.002,184.8211 C290.386,170.6971 279.257,153.0961 268.5,137.9531 C262.477,129.4741 255.781,120.6401 249.191,112.2351 " fill="none" id="ToppingDecorator-to-Pizza" style="stroke:#A80036;stroke-width:1.0;"/><polygon fill="#A80036" points="245.969,108.1461,248.3988,117.6905,249.0642,112.073,254.6818,112.7383,245.969,108.1461" style="stroke:#A80036;stroke-width:1.0;"/><text fill="#000000" font-family="sans-serif" font-size="13" lengthAdjust="spacing" textLength="57" x="280.5" y="151.02">decorate</text><!--MD5=[eb57874a2f83cc1a580c877905baeae9]
reverse link ToppingDecorator to Mozzarella--><path d="M290.341,257.1055 C282.209,271.9685 273.553,287.7869 267.032,299.7055 " fill="none" id="ToppingDecorator-backto-Mozzarella" style="stroke:#A80036;stroke-width:1.0;"/><polygon fill="none" points="284.422,253.3405,300.163,239.1551,296.703,260.0607,284.422,253.3405" style="stroke:#A80036;stroke-width:1.0;"/><!--MD5=[74f407a7037567f5864ba156b7beda89]
reverse link ToppingDecorator to TomatoSauce--><path d="M338.242,257.1055 C346.235,271.9685 354.741,287.7869 361.15,299.7055 " fill="none" id="ToppingDecorator-backto-TomatoSauce" style="stroke:#A80036;stroke-width:1.0;"/><polygon fill="none" points="331.897,260.0854,328.59,239.1551,344.227,253.4549,331.897,260.0854" style="stroke:#A80036;stroke-width:1.0;"/><!--MD5=[fbe596407843f5d8a7c0c806357bec61]
@startuml
title DCL-pizza
skinparam Style strictuml
Interface Pizza <<interface>>{
    getCost(): double
    getDescription(): String
}
class ThreeCheesePizza extends Pizza
class PlainPizza implements Pizza
class ToppingDecorator <<abstract>> implements Pizza 
class Mozzarella extends ToppingDecorator
class TomatoSauce extends ToppingDecorator
ToppingDecorator - -> Pizza: decorate
@enduml

PlantUML version 1.2021.01beta7(Unknown compile time)
(GPL source distribution)
Java Runtime: Java(TM) SE Runtime Environment
JVM: Java HotSpot(TM) 64-Bit Server VM
Default Encoding: UTF-8
Language: en
Country: US
--></g></svg>